<svg xmlns="http://www.w3.org/2000/svg" xmlns:xlink="http://www.w3.org/1999/xlink" width="0" height="0" style="position:absolute">
    <defs>
      
        <svg width="false" height="false" id="box"><path d="M491.729 112.971L259.261.745a7.503 7.503 0 0 0-6.521 0L20.271 112.971a7.5 7.5 0 0 0-4.239 6.754v272.549a7.5 7.5 0 0 0 4.239 6.754l232.468 112.226a7.504 7.504 0 0 0 6.522 0l232.468-112.226a7.5 7.5 0 0 0 4.239-6.754V119.726a7.502 7.502 0 0 0-4.239-6.755zM256 15.828l215.217 103.897-62.387 30.118a7.434 7.434 0 0 0-1.27-.8L193.805 45.853 256 15.828zm-79.133 38.505l214.904 103.746-44.015 21.249L132.941 75.624l43.926-21.291zm219.932 117.974v78.546l-41.113 19.848v-78.546l41.113-19.848zm84.169 215.261L263.5 492.55V236.658l51.873-25.042a7.5 7.5 0 1 0-6.522-13.508L256 223.623l-20.796-10.04a7.498 7.498 0 0 0-10.015 3.493 7.5 7.5 0 0 0 3.493 10.015l19.818 9.567V492.55L31.032 387.566V131.674l165.6 79.945a7.463 7.463 0 0 0 3.255.748 7.5 7.5 0 0 0 3.266-14.256l-162.37-78.386 74.505-35.968L340.582 192.52c.033.046.07.087.104.132v89.999a7.502 7.502 0 0 0 10.761 6.754l56.113-27.089a7.499 7.499 0 0 0 4.239-6.754v-90.495l69.169-33.392v255.893z"></path><path d="M92.926 358.479L58.811 342.01a7.5 7.5 0 0 0-6.522 13.508l34.115 16.469a7.463 7.463 0 0 0 3.255.748 7.5 7.5 0 0 0 6.759-4.241 7.499 7.499 0 0 0-3.492-10.015zM124.323 338.042l-65.465-31.604a7.501 7.501 0 0 0-6.521 13.509l65.465 31.604a7.477 7.477 0 0 0 3.255.748 7.5 7.5 0 0 0 3.266-14.257z"></path></svg>
      
        <svg width="false" height="false" id="budget"><path d="M503.983 409.386a8.016 8.016 0 0 0 8.017-8.017V119.182a8.021 8.021 0 0 0-2.347-5.669l-85.511-85.511a8.021 8.021 0 0 0-5.669-2.347h-180.11V24.05c0-13.261-10.789-24.05-24.05-24.05H24.05C10.789 0 0 10.789 0 24.05v258.672c0 13.261 10.789 24.05 24.05 24.05h61.461v197.211A8.016 8.016 0 0 0 93.528 512h410.455a8.016 8.016 0 0 0 8.017-8.017v-59.858a8.016 8.016 0 0 0-8.017-8.017 8.016 8.016 0 0 0-8.017 8.017v51.841H101.545V306.772h112.768c13.261 0 24.05-10.789 24.05-24.05V144.83c0-4.428-3.588-8.017-8.017-8.017s-8.017 3.588-8.017 8.017v137.893c0 4.421-3.596 8.017-8.017 8.017H24.05c-4.421 0-8.017-3.596-8.017-8.017V24.05c0-4.421 3.596-8.017 8.017-8.017h190.263c4.421 0 8.017 3.596 8.017 8.017v78.029c0 4.428 3.588 8.017 8.017 8.017s8.017-3.588 8.017-8.017V41.687h172.119c-.012.177-.027.354-.027.534v76.96a8.016 8.016 0 0 0 8.017 8.017h76.96c.181 0 .357-.015.534-.027V401.37a8.015 8.015 0 0 0 8.016 8.016zm-77.494-298.221V53.024l58.141 58.141h-58.141z"></path><path d="M198.28 367.699h-53.445a8.016 8.016 0 0 0-8.017 8.017 8.016 8.016 0 0 0 8.017 8.017h53.445a8.017 8.017 0 0 0 0-16.034zM198.28 410.455h-53.445a8.016 8.016 0 0 0-8.017 8.017 8.016 8.016 0 0 0 8.017 8.017h53.445a8.016 8.016 0 0 0 8.017-8.017 8.017 8.017 0 0 0-8.017-8.017zM358.614 247.983c-32.766 0-63.308 13.023-86.001 36.671a8.016 8.016 0 0 0 .233 11.335 8.015 8.015 0 0 0 11.335-.233c19.641-20.467 46.076-31.739 74.433-31.739 56.876 0 103.148 46.272 103.148 103.148S415.49 470.313 358.614 470.313s-103.148-46.272-103.148-103.148c0-16.798 3.908-32.813 11.616-47.601a8.019 8.019 0 0 0-3.403-10.815c-3.926-2.043-8.768-.522-10.815 3.404-8.786 16.859-13.431 35.882-13.431 55.012 0 65.717 53.465 119.182 119.182 119.182s119.182-53.465 119.182-119.182-53.467-119.182-119.183-119.182z"></path><path d="M376.915 360.217l-12.423-.366v-44.528h28.326a8.016 8.016 0 0 0 8.017-8.017 8.016 8.016 0 0 0-8.017-8.017h-28.326v-9.086a8.016 8.016 0 0 0-8.017-8.017 8.016 8.016 0 0 0-8.017 8.017v9.086h-8.017c-13.261 0-24.05 10.789-24.05 24.05v27.791c0 13.217 10.719 23.98 23.92 24.05l8.147.239v43.585h-24.05a8.016 8.016 0 0 0-8.017 8.017 8.016 8.016 0 0 0 8.017 8.017h24.05v9.086a8.016 8.016 0 0 0 8.017 8.017 8.016 8.016 0 0 0 8.017-8.017v-9.086h12.292c13.261 0 24.05-10.789 24.05-24.05v-26.722c.001-13.216-10.718-23.978-23.919-24.049zm-28.456-.837l-7.78-.229a9.227 9.227 0 0 0-.236-.003c-4.421 0-8.017-3.596-8.017-8.017V323.34c0-4.421 3.596-8.017 8.017-8.017h8.017v44.057zm36.343 51.61c0 4.421-3.596 8.017-8.017 8.017h-12.292v-43.114l12.056.355c.078.002.157.003.236.003 4.421 0 8.017 3.596 8.017 8.017v26.722zM204.693 25.653H33.67a8.016 8.016 0 0 0-8.017 8.017v42.756a8.016 8.016 0 0 0 8.017 8.017h171.023a8.016 8.016 0 0 0 8.017-8.017V33.67a8.016 8.016 0 0 0-8.017-8.017zm-8.017 42.756H41.687V41.687h154.99v26.722zM67.875 94.063H33.67a8.016 8.016 0 0 0-8.017 8.017v34.205a8.016 8.016 0 0 0 8.017 8.017h34.205a8.016 8.016 0 0 0 8.017-8.017V102.08a8.017 8.017 0 0 0-8.017-8.017zm-8.017 34.204H41.687v-18.171h18.171v18.171zM136.284 94.063h-34.205a8.016 8.016 0 0 0-8.017 8.017v34.205a8.016 8.016 0 0 0 8.017 8.017h34.205a8.016 8.016 0 0 0 8.017-8.017V102.08a8.016 8.016 0 0 0-8.017-8.017zm-8.017 34.204h-18.171v-18.171h18.171v18.171zM204.693 94.063h-34.205a8.016 8.016 0 0 0-8.017 8.017v34.205a8.016 8.016 0 0 0 8.017 8.017h34.205a8.016 8.016 0 0 0 8.017-8.017V102.08a8.015 8.015 0 0 0-8.017-8.017zm-8.017 34.204h-18.171v-18.171h18.171v18.171zM67.875 162.472H33.67a8.016 8.016 0 0 0-8.017 8.017v34.205a8.016 8.016 0 0 0 8.017 8.017h34.205a8.016 8.016 0 0 0 8.017-8.017v-34.205a8.017 8.017 0 0 0-8.017-8.017zm-8.017 34.204H41.687v-18.171h18.171v18.171zM136.284 162.472h-34.205a8.016 8.016 0 0 0-8.017 8.017v34.205a8.016 8.016 0 0 0 8.017 8.017h34.205a8.016 8.016 0 0 0 8.017-8.017v-34.205a8.016 8.016 0 0 0-8.017-8.017zm-8.017 34.204h-18.171v-18.171h18.171v18.171zM67.875 230.881H33.67a8.016 8.016 0 0 0-8.017 8.017v34.205a8.016 8.016 0 0 0 8.017 8.017h34.205a8.016 8.016 0 0 0 8.017-8.017v-34.205a8.017 8.017 0 0 0-8.017-8.017zm-8.017 34.205H41.687v-18.171h18.171v18.171zM136.284 230.881h-34.205a8.016 8.016 0 0 0-8.017 8.017v34.205a8.016 8.016 0 0 0 8.017 8.017h34.205a8.016 8.016 0 0 0 8.017-8.017v-34.205a8.016 8.016 0 0 0-8.017-8.017zm-8.017 34.205h-18.171v-18.171h18.171v18.171zM204.693 162.472h-34.205a8.016 8.016 0 0 0-8.017 8.017v102.614a8.016 8.016 0 0 0 8.017 8.017h34.205a8.016 8.016 0 0 0 8.017-8.017V170.489a8.015 8.015 0 0 0-8.017-8.017zm-8.017 102.614h-18.171v-86.58h18.171v86.58zM475.297 189.04l-43.668-41.467c-3.209-3.05-8.283-2.917-11.333.293a8.015 8.015 0 0 0 .293 11.333l37.701 35.802-6.654 6.654L336.377 86.391a8.02 8.02 0 0 0-4.097-2.192l-29.706-5.941-14.301-15.769c-2.975-3.281-8.047-3.529-11.324-.554a8.019 8.019 0 0 0-.554 11.324s16.484 18.037 17.032 18.398l5.232 26.161a8.02 8.02 0 0 0 2.192 4.097l127.735 127.736c4.689 4.688 10.847 7.031 17.006 7.031 6.159 0 12.317-2.343 17.005-7.031h.001l1.511-1.512c9.375-9.377 9.375-24.635 0-34.011l-1.134-1.134 12.471-12.471c3.143-3.144 3.075-8.423-.149-11.483zm-161.392-76.744l-3.211-16.062 16.061 3.212 77.266 77.268-12.848 12.848-77.268-77.266zm138.868 124.505l-1.51 1.511c-3.128 3.124-8.213 3.127-11.338 0l-37.412-37.413 12.847-12.848 37.413 37.413c3.126 3.125 3.125 8.211 0 11.337z"></path></svg>
      
        <svg width="false" height="false" id="calculator"><g><path d="M50.586 0H9.414A2.918 2.918 0 0 0 6.5 2.914v54.172A2.918 2.918 0 0 0 9.414 60h41.172a2.918 2.918 0 0 0 2.914-2.914V2.914A2.918 2.918 0 0 0 50.586 0zm.914 57.086c0 .504-.41.914-.914.914H9.414a.915.915 0 0 1-.914-.914V2.914c0-.504.41-.914.914-.914h41.172c.504 0 .914.41.914.914v54.172z"></path><path d="M11.5 55h11V44h-11v11zm2-9h7v7h-7v-7zM24.5 55h11V44h-11v11zm2-9h7v7h-7v-7zM37.5 55h11V31h-11v24zm2-22h7v20h-7V33zM11.5 42h11V31h-11v11zm2-9h7v7h-7v-7zM24.5 42h11V31h-11v11zm2-9h7v7h-7v-7zM11.5 29h11V18h-11v11zm2-9h7v7h-7v-7zM24.5 29h11V18h-11v11zm2-9h7v7h-7v-7zM37.5 29h11V18h-11v11zm2-9h7v7h-7v-7zM11.5 15h37V5h-37v10zm2-8h33v6h-33V7z"></path></g></svg>
      
        <svg width="false" height="false" id="car"><path d="M476.158 231.363l-13.259-53.035c3.625-.77 6.345-3.986 6.345-7.839v-8.551c0-18.566-15.105-33.67-33.67-33.67h-60.392V110.63c0-9.136-7.432-16.568-16.568-16.568H50.772c-9.136 0-16.568 7.432-16.568 16.568V256a8.017 8.017 0 0 0 16.034 0V110.63c0-.295.239-.534.534-.534h307.841c.295 0 .534.239.534.534v145.372a8.017 8.017 0 0 0 16.034 0v-9.088h94.569l.021.002.022-.001c11.637.008 21.518 7.646 24.912 18.171h-24.928a8.017 8.017 0 0 0-8.017 8.017v17.102c0 13.851 11.268 25.119 25.119 25.119h9.086v35.273h-20.962c-6.886-19.883-25.787-34.205-47.982-34.205s-41.097 14.322-47.982 34.205h-3.86v-60.393a8.017 8.017 0 0 0-16.034 0v60.391H192.817c-6.886-19.883-25.787-34.205-47.982-34.205s-41.097 14.322-47.982 34.205H50.772a.534.534 0 0 1-.534-.534v-17.637h34.739a8.017 8.017 0 0 0 0-16.034H8.017a8.017 8.017 0 0 0 0 16.034h26.188v17.637c0 9.136 7.432 16.568 16.568 16.568h43.304c-.002.178-.014.355-.014.534 0 27.996 22.777 50.772 50.772 50.772s50.772-22.776 50.772-50.772c0-.18-.012-.356-.014-.534h180.67c-.002.178-.014.355-.014.534 0 27.996 22.777 50.772 50.772 50.772 27.995 0 50.772-22.776 50.772-50.772 0-.18-.012-.356-.014-.534h26.203a8.017 8.017 0 0 0 8.017-8.017v-85.511c.001-21.112-15.576-38.653-35.841-41.738zm-100.976-87.062h60.392c9.725 0 17.637 7.912 17.637 17.637v.534h-78.029v-18.171zm0 86.58v-52.376h71.235l13.094 52.376h-84.329zM144.835 401.904c-19.155 0-34.739-15.583-34.739-34.739s15.584-34.739 34.739-34.739c19.155 0 34.739 15.583 34.739 34.739s-15.584 34.739-34.739 34.739zm282.188 0c-19.155 0-34.739-15.583-34.739-34.739s15.584-34.739 34.739-34.739c19.155 0 34.739 15.583 34.739 34.739s-15.584 34.739-34.739 34.739zm68.944-102.614h-9.086c-5.01 0-9.086-4.076-9.086-9.086v-9.086h18.171v18.172z"></path><path d="M144.835 350.597c-9.136 0-16.568 7.432-16.568 16.568 0 9.136 7.432 16.568 16.568 16.568 9.136 0 16.568-7.432 16.568-16.568 0-9.136-7.432-16.568-16.568-16.568zM427.023 350.597c-9.136 0-16.568 7.432-16.568 16.568 0 9.136 7.432 16.568 16.568 16.568 9.136 0 16.568-7.432 16.568-16.568 0-9.136-7.432-16.568-16.568-16.568zM332.96 316.393H213.244a8.017 8.017 0 0 0 0 16.034H332.96a8.017 8.017 0 0 0 0-16.034zM127.733 282.188H25.119a8.017 8.017 0 0 0 0 16.034h102.614a8.017 8.017 0 0 0 0-16.034zM278.771 173.37a8.017 8.017 0 0 0-11.337.001l-71.292 71.291-37.087-37.087a8.016 8.016 0 0 0-11.337 0 8.016 8.016 0 0 0 0 11.337l42.756 42.756c1.565 1.566 3.617 2.348 5.668 2.348s4.104-.782 5.668-2.348l76.96-76.96a8.018 8.018 0 0 0 .001-11.338z"></path></svg>
      
        <svg width="false" height="false" id="consultation"><path d="M337.892 347.334a8.001 8.001 0 0 1-7.431-5.034l-19.959-49.96c-10.254-25.266-22.047-38.02-38.459-41.012l-4.17 19.905 5.77 51.905a8.001 8.001 0 0 1-2.94 7.12l-12.873 10.344a7.997 7.997 0 0 1-5.011 1.764h-4.568a8 8 0 0 1-5.011-1.764l-12.875-10.344a7.997 7.997 0 0 1-2.94-7.12l5.771-51.905-4.171-19.904c-16.411 2.992-28.205 15.751-38.475 41.052l-20.271 49.959a8 8 0 0 1-14.826-6.016l20.271-49.96c8.793-21.663 24.391-50.285 58.731-51.681.304-.035.611-.053.921-.053h30.316c.31 0 .617.018.921.053 34.344 1.396 49.94 30.019 58.731 51.68l19.975 50.001a7.997 7.997 0 0 1-4.461 10.396 7.977 7.977 0 0 1-2.966.574zm-94.08-26.796l6.723 5.401 6.721-5.4-4.635-41.693h-4.173l-4.636 41.692zm3.973-57.692h5.498l2.56-12.215h-10.617l2.559 12.215zM9.441 347.334a8 8 0 0 1-7.41-11.01l19.97-49.219c8.893-21.911 24.845-51.041 60.565-51.041h26.489c19.255 0 35.103 8.562 47.104 25.449.198.278 1.107 1.517 2.211 3.02 3.823 5.211 4.839 6.607 5.174 7.113a7.999 7.999 0 0 1-2.26 11.086 7.999 7.999 0 0 1-11.055-2.214c-.43-.618-3.243-4.452-4.759-6.52a518.882 518.882 0 0 1-2.358-3.224c-5.535-7.789-11.722-13.039-18.922-15.948l-21.916 30.032a8.001 8.001 0 0 1-12.924 0L67.436 254.83c-12.489 5.063-22.083 17.279-30.609 38.29l-19.97 49.219a8.004 8.004 0 0 1-7.416 4.995zm75.784-95.27l10.587 14.508 10.587-14.508H85.225zm42.856 95.267H43a8 8 0 0 1 0-16h85.081a8 8 0 0 1 0 16zm158.833-58.229a8 8 0 0 1-8-8v-1.001a8 8 0 0 1 16 0v1.001a8 8 0 0 1-8 8zM95.812 224.323c-22.383 0-40.593-18.21-40.593-40.594 0-18.437 12.354-34.041 29.218-38.971.082-.026.164-.052.248-.075a40.476 40.476 0 0 1 8.2-1.442h.002a.167.167 0 0 1 .039-.003.421.421 0 0 1 .046-.003c.017-.001.033-.001.05-.004a.315.315 0 0 0 .044-.003c.021.001.035-.002.051-.003.014-.004.027-.002.041-.003.032.001.061-.003.092-.006.132-.009.263-.016.396-.022l.002-.001.129-.006c.014.001.056-.004.087-.005a.2.2 0 0 0 .041-.002c.017-.002.033-.001.05-.002l.039-.002.037-.001c.015-.003.031-.002.044-.002.015-.002.027-.004.046-.002a.13.13 0 0 1 .035-.002c.031-.002.063.006.093-.004.496-.019.993-.028 1.491-.029h.257a.694.694 0 0 0 .064.001h.094c19.896.164 36.479 14.48 39.69 33.85.368 2.193.56 4.445.56 6.742.001 22.384-18.209 40.594-40.593 40.594zm-14.39-60.526c-6.177 4.472-10.203 11.741-10.203 19.933 0 13.562 11.032 24.594 24.593 24.594 11.494 0 21.172-7.926 23.854-18.6-17.379.099-32.323-10.49-38.244-25.927zm15.4-4.64c3.701 8.368 11.887 14.155 21.447 14.547-3.715-8.287-11.887-14.158-21.447-14.547zm153.711 63.315c-22.653 0-41.083-18.431-41.083-41.085 0-22.653 18.43-41.083 41.083-41.083 2.71 0 5.361.264 7.927.768.167.028.335.062.502.102 18.625 3.899 32.656 20.449 32.656 40.214 0 22.653-18.431 41.084-41.085 41.084zm-14.211-61.744c-6.562 4.528-10.872 12.101-10.872 20.659 0 13.832 11.252 25.085 25.083 25.085 13.832 0 25.085-11.253 25.085-25.085 0-10.292-6.231-19.156-15.119-23.019a41.14 41.14 0 0 1-12.369 10.649 7.999 7.999 0 0 1-10.892-3.06 7.957 7.957 0 0 1-.916-5.229zm-175.288-21.9a8 8 0 0 1-8-8V58.745c0-14.011 11.399-25.409 25.41-25.409h28.382a8 8 0 0 1 0 16H78.444c-5.188 0-9.41 4.221-9.41 9.409v58.43l11.015-6.173a7.997 7.997 0 0 1 3.911-1.021h69.418a8 8 0 0 1 0 16h-67.33l-21.104 11.826a7.993 7.993 0 0 1-3.91 1.021zm189.543-16.571a8 8 0 0 1-5.913-2.609l-24.626-27.003h-64.687c-14.01 0-25.408-11.398-25.408-25.408V25.409C129.943 11.398 141.341 0 155.351 0h77.813c14.011 0 25.41 11.398 25.41 25.409v88.848a7.998 7.998 0 0 1-7.997 8zM155.351 16c-5.188 0-9.408 4.221-9.408 9.409v41.827c0 5.188 4.221 9.408 9.408 9.408h68.218c2.25 0 4.396.947 5.911 2.609l13.095 14.358V25.409c0-5.188-4.222-9.409-9.41-9.409h-77.814zm-50.126 63.577H90.711a8 8 0 0 1 0-16h14.514a8 8 0 0 1 0 16zm113.969-32.869h-33.021a8 8 0 0 1 0-16h33.021a8 8 0 0 1 0 16z"></path></svg>
      
        <svg width="false" height="false" id="desktop"><path d="M8 168h60v12H52v8h40v-8H76v-12h64c2.211 0 4-1.789 4-4V80c0-2.211-1.789-4-4-4H8c-2.211 0-4 1.789-4 4v84c0 2.211 1.789 4 4 4zm4-84h124v76H12V84zM168 60h40v8h-40zM196 108c-6.617 0-12 5.383-12 12s5.383 12 12 12 12-5.383 12-12-5.383-12-12-12zm0 16c-2.207 0-4-1.793-4-4s1.793-4 4-4 4 1.793 4 4-1.793 4-4 4z"></path><path d="M49.172 93.172l-24 24a4 4 0 1 0 5.656 5.656l24-24a4 4 0 1 0-5.656-5.656zM224 192V44c0-2.211-1.789-4-4-4h-64c-2.211 0-4 1.789-4 4v148H0v8h240v-8h-16zm-8 0h-56V48h56v144z"></path></svg>
      
        <svg width="false" height="false" id="desktop-computer"><path d="M32.335 11.606h-6.533v-1.009h6.533v1.009zm0 .658h-6.533v1.011h6.533v-1.011zm-.004-4.577h-6.523V9.91h6.523V7.687zm2.087-2.39v23.827a.65.65 0 0 1-.65.648h-9.397a.649.649 0 0 1-.649-.649V5.297c0-.358.29-.65.649-.65h9.397a.65.65 0 0 1 .65.65zm-1.299.647h-8.1v22.53h8.1V5.944zm-.784 7.988h-6.533v1.008h6.533v-1.008zm-1.063 7.518a2.097 2.097 0 1 1-2.097-2.098c1.158 0 2.097.941 2.097 2.098zm-.757 0a1.342 1.342 0 0 0-2.683 0 1.34 1.34 0 0 0 2.683 0zM21.937 9.218v13.505c0 .814-.655 1.473-1.461 1.473H13.18s-.414 2.948 2.212 2.948v1.475H6.546v-1.473c2.529 0 2.212-2.948 2.212-2.948H1.465A1.469 1.469 0 0 1 0 22.725V9.218c0-.814.656-1.47 1.465-1.47h19.01c.807 0 1.462.656 1.462 1.47zm-9.605 13.176a1.264 1.264 0 1 0-1.264 1.265c.699 0 1.264-.567 1.264-1.265zm8.039-13.083H1.568v11.387h18.803V9.311zm-9.29 12.292a.785.785 0 1 0 0 1.57.785.785 0 0 0 0-1.57z" fill="#FFDA44"></path></svg>
      
        <svg width="false" height="false" id="employee"><path d="M207.9 376.757h-32.064a7.5 7.5 0 0 0 0 15H207.9a7.5 7.5 0 0 0 7.5-7.5 7.5 7.5 0 0 0-7.5-7.5z"></path><path d="M396.248 284.958l-46.869-18.079-23.949-23.949a7.482 7.482 0 0 0-5.819-2.176v-20.429a87.263 87.263 0 0 0 22.51-44.331c.042-.154.293-.407.466-.477 2.093.144 4.211.001 6.3-.426 10.905-2.232 18.821-12.369 18.821-24.103v-6.247c0-7.005-2.929-13.417-7.664-17.89 7.71-41.146 1.607-74.633-17.723-96.956C323.743 8.445 293.752-1.803 255.593.26c-35.82 1.936-58.699 18.619-65.494 24.287-9.546 1.191-37.794 8.042-37.794 47.331 0 22.229 3.676 40.634 6.168 50.562-8.454 3.709-14.184 12.394-14.184 22.396v6.153c0 11.733 7.916 21.87 18.821 24.103 2.089.428 4.209.571 6.3.426.172.07.424.322.464.469a87.284 87.284 0 0 0 22.512 44.337v20.43a7.483 7.483 0 0 0-5.819 2.176l-23.948 23.948-46.869 18.079c-22.213 8.568-36.498 30.308-35.544 54.097L86.844 504.8a7.5 7.5 0 0 0 14.989-.6l-6.638-165.746a40.537 40.537 0 0 1 1.914-14.053l27.275 27.275c7.668 7.668 11.891 17.863 11.891 28.707v124.118a7.5 7.5 0 0 0 15 0v-124.12c0-14.85-5.783-28.812-16.284-39.313l-30.334-30.333a40.528 40.528 0 0 1 16.493-11.783l44.1-17.01 33.582 50.374a23.445 23.445 0 0 0 17.262 10.364 23.412 23.412 0 0 0 15.57-3.972l-7.204 165.465a7.5 7.5 0 0 0 7.499 7.826 7.5 7.5 0 0 0 7.487-7.174l6.657-152.898h19.798l6.657 152.898a7.5 7.5 0 1 0 14.986-.652L280.34 338.71a23.4 23.4 0 0 0 13.226 4.088c.778 0 1.561-.039 2.344-.116a23.451 23.451 0 0 0 17.262-10.364l33.582-50.374 44.1 17.01a40.538 40.538 0 0 1 16.493 11.783l-30.334 30.333c-10.501 10.501-16.284 24.463-16.284 39.313v124.118a7.5 7.5 0 0 0 15 0V380.383c0-10.844 4.223-21.039 11.891-28.707l27.275-27.275a40.537 40.537 0 0 1 1.914 14.053L410.172 504.2a7.5 7.5 0 0 0 7.5 7.8 7.5 7.5 0 0 0 7.489-7.2l6.638-165.745c.947-23.789-13.338-45.529-35.551-54.097zM184.622 173.275c-1.411-7.699-8.531-13.286-16.219-12.724a8.377 8.377 0 0 1-2.287-.155c-3.894-.797-6.83-4.841-6.83-9.407v-6.153c0-4.552 2.979-8.508 6.93-9.202 3.256-.571 6.384.628 8.363 3.208 1.436 1.873 3.348 3.211 5.53 3.871 3.196.965 6.721.399 9.429-1.513 6.56-4.63 12.121-10.504 16.527-17.458a7.5 7.5 0 0 0-12.67-8.03c-2.681 4.23-5.911 7.926-9.629 11.024a23.453 23.453 0 0 0-10.102-5.488c-2.17-8.086-6.362-26.649-6.362-49.369 0-31.292 23.298-32.542 25.9-32.581 1.938 0 3.8-.75 5.197-2.093.208-.199 21.187-19.977 58-21.967 33.359-1.802 59.149 6.661 74.578 24.478 15.709 18.139 20.832 46.019 14.944 80.872-2.7-.184-5.784.019-8.825.594l-8.38-20.123a7.507 7.507 0 0 0-8.823-4.372c-.801.209-80.584 20.448-114.202-21.403a7.5 7.5 0 1 0-11.694 9.393c33.965 42.287 102.014 32.345 123.299 27.978l6.563 15.758c2.473 5.941 8.799 9.186 15.042 7.716 2.758-.649 5.595-.73 6.866-.478 3.955.787 6.937 4.694 6.937 9.089v6.247c0 4.566-2.936 8.61-6.83 9.407a8.37 8.37 0 0 1-2.286.155c-7.669-.564-14.808 5.025-16.222 12.726-6.326 34.442-36.342 59.441-71.372 59.441-35.029 0-65.045-24.999-71.372-59.441zm39.82 152.021a8.493 8.493 0 0 1-6.874 2.458 8.505 8.505 0 0 1-6.259-3.758l-33.838-50.758 14.739-14.739 52.815 46.213-20.583 20.584zm22.31 11.632l.579-13.308 8.667-8.667 8.666 8.667.579 13.308h-18.491zm9.246-42.546l-48.613-42.536v-18.874c13.997 9.349 30.76 14.747 48.613 14.747s34.616-5.398 48.613-14.746v18.873l-48.613 42.536zm44.688 29.614a8.505 8.505 0 0 1-6.259 3.758 8.494 8.494 0 0 1-6.874-2.458l-20.583-20.584 52.815-46.213 14.739 14.739-33.838 50.758z"></path></svg>
      
        <svg width="false" height="false" id="file"><g><path d="M42.5 22h-25a1 1 0 1 0 0 2h25a1 1 0 1 0 0-2zM17.5 16h10a1 1 0 1 0 0-2h-10a1 1 0 1 0 0 2zM42.5 30h-25a1 1 0 1 0 0 2h25a1 1 0 1 0 0-2zM42.5 38h-25a1 1 0 1 0 0 2h25a1 1 0 1 0 0-2zM42.5 46h-25a1 1 0 1 0 0 2h25a1 1 0 1 0 0-2z"></path><path d="M38.914 0H6.5v60h47V14.586L38.914 0zm.586 3.414L50.086 14H39.5V3.414zM8.5 58V2h29v14h14v42h-43z"></path></g></svg>
      
        <svg preserveAspectRatio="none" width="false" height="false" id="left-arrow"><path d="M40 26H15.414l8.293-8.293-1.414-1.414L11.586 27l10.707 10.707 1.414-1.414L15.414 28H40a1 1 0 1 0 0-2z"></path></svg>
      
        <svg width="false" height="false" id="locked"><g><path d="M43 20.113V14.5C43 6.505 35.822 0 27 0S11 6.505 11 14.5v5.613c-3.401.586-6 3.55-6 7.117v19.542C5 50.757 8.243 54 12.229 54h29.542C45.757 54 49 50.757 49 46.771V27.229c0-3.566-2.599-6.53-6-7.116zM13 14.5C13 7.607 19.28 2 27 2s14 5.607 14 12.5V20H13v-5.5zm34 32.271A5.235 5.235 0 0 1 41.771 52H12.229A5.235 5.235 0 0 1 7 46.771V27.229A5.235 5.235 0 0 1 12.229 22h29.542A5.235 5.235 0 0 1 47 27.229v19.542z"></path><path d="M27 28c-2.206 0-4 1.794-4 4v6c0 2.206 1.794 4 4 4s4-1.794 4-4v-6c0-2.206-1.794-4-4-4zm2 10c0 1.103-.897 2-2 2s-2-.897-2-2v-6c0-1.103.897-2 2-2s2 .897 2 2v6z"></path></g></svg>
      
        <svg width="false" height="false" id="money"><g><path d="M224 32h64v21.333h-64zM149.333 384h21.333v21.333h-21.333zM149.333 341.333h21.333v21.333h-21.333zM192 384h21.333v21.333H192z"></path><path d="M458.667 181.333c-14.735 0-36.96 5.086-53.333 20.42V32c0-17.673-14.327-32-32-32H138.667c-17.673 0-32 14.327-32 32v128h-32c-17.673 0-32 14.327-32 32v21.333a31.873 31.873 0 0 0 8.155 21.333 31.875 31.875 0 0 0-8.155 21.333v21.333a31.873 31.873 0 0 0 8.155 21.333 31.875 31.875 0 0 0-8.155 21.333v21.333a31.873 31.873 0 0 0 8.155 21.333 31.875 31.875 0 0 0-8.155 21.333v21.333c0 17.673 14.327 32 32 32h32V480c0 17.673 14.327 32 32 32h234.667c17.673 0 32-14.327 32-32V248.629c1.708-22.838 19.285-41.893 42.667-44.843v297.547h21.333V192c-.001-5.891-4.776-10.667-10.667-10.667zm-320-160h234.667C379.224 21.333 384 26.109 384 32v32H128V32c0-5.891 4.776-10.667 10.667-10.667zM64 341.333V320c0-5.891 4.776-10.667 10.667-10.667h32V352h-32C68.776 352 64 347.224 64 341.333zm0-64V256c0-5.891 4.776-10.667 10.667-10.667h32V288h-32C68.776 288 64 283.224 64 277.333zM64 192c0-5.891 4.776-10.667 10.667-10.667h32V224h-32C68.776 224 64 219.224 64 213.333V192zm10.667 224C68.776 416 64 411.224 64 405.333V384c0-5.891 4.776-10.667 10.667-10.667h32V416h-32zm298.666 74.667H138.667c-5.891 0-10.667-4.776-10.667-10.667v-32h256v32c0 5.891-4.776 10.667-10.667 10.667zm10.667-64H128V85.333h256v341.334z"></path><path d="M256 149.333c-58.91 0-106.667 47.756-106.667 106.667S197.09 362.667 256 362.667c58.884-.065 106.602-47.783 106.667-106.667 0-58.91-47.757-106.667-106.667-106.667zm0 192c-47.128 0-85.333-38.205-85.333-85.333s38.205-85.333 85.333-85.333c47.106.053 85.28 38.227 85.333 85.333 0 47.128-38.205 85.333-85.333 85.333z"></path><path d="M256 224c5.891 0 10.667 4.776 10.667 10.667H288c0-13.932-8.906-25.778-21.333-30.172V192h-21.333v12.495C232.906 208.888 224 220.735 224 234.667c0 17.673 14.327 32 32 32 5.891 0 10.667 4.776 10.667 10.667s-4.776 10.667-10.667 10.667-10.667-4.776-10.667-10.667H224c0 13.932 8.906 25.778 21.333 30.172V320h21.333v-12.495c12.427-4.394 21.333-16.24 21.333-30.172 0-17.673-14.327-32-32-32-5.891 0-10.667-4.776-10.667-10.667.001-5.89 4.777-10.666 10.668-10.666zM341.333 106.667h21.333V128h-21.333zM341.333 149.333h21.333v21.333h-21.333zM298.667 106.667H320V128h-21.333z"></path></g></svg>
      
        <svg width="false" height="false" id="note"><g><path d="M288.842 0H6a6 6 0 0 0-6 6v282.842a6 6 0 0 0 6 6h240.421a6 6 0 0 0 0-12H12V12h270.842v276.842a6 6 0 0 0 12 0V6a6 6 0 0 0-6-6z"></path><path d="M65.815 62.421c-12.683 0-23 10.317-23 23s10.317 23 23 23 23-10.317 23-23-10.317-23-23-23zm0 34c-6.065 0-11-4.935-11-11s4.935-11 11-11 11 4.935 11 11-4.934 11-11 11zM246.815 79.421h-140a6 6 0 0 0 0 12h140a6 6 0 0 0 0-12zM65.815 124.421a6 6 0 0 0 0 12c6.065 0 11 4.935 11 11s-4.935 11-11 11-11-4.935-11-11a6 6 0 0 0-12 0c0 12.683 10.317 23 23 23s23-10.317 23-23-10.317-23-23-23zM246.815 141.421h-140a6 6 0 0 0 0 12h140a6 6 0 0 0 0-12zM65.815 186.421c-12.683 0-23 10.317-23 23s10.317 23 23 23 23-10.317 23-23-10.317-23-23-23zm0 34c-6.065 0-11-4.935-11-11s4.935-11 11-11 11 4.935 11 11-4.934 11-11 11zM246.815 203.421h-140a6 6 0 0 0 0 12h140a6 6 0 0 0 0-12z"></path></g></svg>
      
        <svg preserveAspectRatio="none" width="false" height="false" id="right-arrow"><path d="M29.293 17.707L37.586 26H13a1 1 0 1 0 0 2h24.586l-8.293 8.293 1.414 1.414L41.414 27 30.707 16.293l-1.414 1.414z"></path></svg>
      
        <svg viewBox="0 0 512 512" width="512" height="512" id="settings"><path d="M501.74 211.77l-60.7-20.24c-2.39-6.8-5.18-13.51-8.33-20.05l28.62-57.27a14.997 14.997 0 0 0-2.8-17.31L416.1 54.48a14.984 14.984 0 0 0-17.31-2.81L341.52 80.3c-6.53-3.16-13.22-5.94-20.01-8.32l-20.26-61.66A14.994 14.994 0 0 0 287 0h-60c-6.48 0-12.23 4.16-14.25 10.32l-20.26 61.66c-6.79 2.38-13.48 5.16-20.01 8.32l-57.27-28.63a14.981 14.981 0 0 0-17.31 2.81L55.48 96.9a14.984 14.984 0 0 0-2.81 17.31l28.63 57.27c-3.15 6.52-5.93 13.2-8.31 19.98l-62.61 20.27C4.19 213.73 0 219.5 0 226v60c0 6.5 4.19 12.27 10.38 14.27l62.61 20.27c2.38 6.78 5.16 13.46 8.31 19.98l-28.63 57.26a15.01 15.01 0 0 0 2.8 17.32l42.43 42.42c4.56 4.57 11.54 5.7 17.32 2.81l57.26-28.63c6.53 3.15 13.23 5.94 20.01 8.32l20.26 61.66A14.994 14.994 0 0 0 227 512h60c6.48 0 12.23-4.16 14.25-10.32l20.26-61.66c6.78-2.38 13.48-5.17 20.01-8.32l57.26 28.63a14.996 14.996 0 0 0 17.32-2.81l42.43-42.42a15.01 15.01 0 0 0 2.8-17.32l-28.62-57.26c3.15-6.54 5.94-13.25 8.33-20.05l60.7-20.24A14.991 14.991 0 0 0 512 286v-60c0-6.46-4.13-12.19-10.26-14.23zM482 275.19l-57.6 19.2a15.025 15.025 0 0 0-9.61 9.85c-3.05 10-7.13 19.82-12.12 29.18a14.988 14.988 0 0 0-.17 13.76l27.17 54.35-27.14 27.14-54.34-27.18c-4.35-2.17-9.47-2.1-13.76.18-9.38 4.99-19.2 9.07-29.19 12.12a15.015 15.015 0 0 0-9.87 9.67L276.14 482h-38.28l-19.23-58.54a15.015 15.015 0 0 0-9.87-9.67c-9.99-3.05-19.81-7.13-29.19-12.12a15.018 15.018 0 0 0-13.76-.18l-54.34 27.18-27.14-27.14 27.17-54.35c2.18-4.34 2.11-9.47-.17-13.76-4.99-9.36-9.07-19.18-12.12-29.18a14.984 14.984 0 0 0-9.73-9.89L30 275.09v-38.18l59.48-19.26c4.67-1.51 8.3-5.2 9.73-9.89 3.05-9.99 7.13-19.81 12.12-29.19 2.28-4.28 2.35-9.41.17-13.76l-27.17-54.34 27.14-27.14 54.34 27.17c4.35 2.18 9.48 2.11 13.76-.17 9.38-4.99 19.2-9.07 29.19-12.12 4.66-1.43 8.35-5.03 9.87-9.67L237.86 30h38.28l19.23 58.54c1.52 4.64 5.21 8.24 9.87 9.67 9.99 3.05 19.81 7.13 29.19 12.12 4.28 2.28 9.41 2.35 13.76.17l54.34-27.17 27.14 27.14-27.17 54.34c-2.18 4.35-2.11 9.48.17 13.76 4.99 9.37 9.07 19.19 12.12 29.19 1.42 4.64 5 8.31 9.61 9.85l57.6 19.2v38.38z"></path><path d="M256 121c-74.44 0-135 60.56-135 135s60.56 135 135 135 135-60.56 135-135-60.56-135-135-135zm0 240c-57.9 0-105-47.1-105-105s47.1-105 105-105 105 47.1 105 105-47.1 105-105 105z"></path><path d="M256 181c-41.35 0-75 33.65-75 75s33.65 75 75 75c41.36 0 75-33.65 75-75s-33.64-75-75-75zm0 120c-24.81 0-45-20.19-45-45s20.19-45 45-45 45 20.19 45 45-20.19 45-45 45z"></path></svg>
      
        <svg preserveAspectRatio="none" width="false" height="false" id="slider-left"><path d="M45.268 1.414L43.854 0 14.146 29.707l29.708 29.707L45.268 58 16.975 29.707z"></path></svg>
      
        <svg viewBox="0 0 59.414 59.414" width="59.414" height="59.414" id="slider-right"><path d="M15.561 0l-1.415 1.414 28.293 28.293L14.146 58l1.415 1.414 29.707-29.707z"></path></svg>
      
        <svg width="false" height="false" id="telemarketer"><path d="M386.395 139.102a23.326 23.326 0 0 0-17.137-7.531h-11.945l1.421-21.792 1.764-27.056c1.362-20.886-5.77-40.8-20.08-56.074-14.31-15.274-33.718-23.685-54.647-23.685h-59.546c-20.93 0-40.337 8.411-54.647 23.685-14.31 15.274-21.441 35.187-20.08 56.074l2.647 40.581.539 8.267h-12.966a23.322 23.322 0 0 0-17.137 7.531 23.319 23.319 0 0 0-6.041 17.718l3.885 45.267c.802 9.357 6.924 16.917 15.265 19.895v42.178c0 5.633 4.566 10.199 10.199 10.199s10.199-4.566 10.199-10.199v-40.797h2.74c3.684 30.648 21.696 57.47 48.968 72.471 14.468 7.957 30.333 11.935 46.204 11.935 15.868 0 31.741-3.979 46.204-11.935 13.855-7.62 25.312-18.297 33.726-30.97 7.017-.721 13.53-2.663 19.504-5.857 29.474-15.762 32.991-55.293 33.126-56.968v-.004l3.876-45.216a23.318 23.318 0 0 0-6.041-17.717zm-240.794 63.862a2.847 2.847 0 0 1-2.853-2.619l-3.881-45.268a2.799 2.799 0 0 1 .744-2.182 2.797 2.797 0 0 1 2.109-.927h14.296l3.326 50.996h-13.741zm26.256-121.569c-.991-15.197 4.197-29.686 14.609-40.8 10.411-11.113 24.533-17.233 39.762-17.233h59.546c1.321 0 2.63.063 3.933.154l-15.8 42.132c-2.554 4.244-25.729 39.11-100.073 46.059l-1.977-30.312zm159.462 135.342a75.625 75.625 0 0 1-7.24 27.77c-8.751-.963-18.733-4.198-29.888-9.684.369-1.724.567-3.51.567-5.342 0-14.06-11.438-25.498-25.498-25.498s-25.498 11.438-25.498 25.498 11.438 25.498 25.498 25.498c4.656 0 9.021-1.261 12.782-3.449 10.469 5.392 20.329 9.199 29.547 11.396a75.77 75.77 0 0 1-19.214 15.035c-22.776 12.528-49.972 12.528-72.748 0-22.699-12.485-37.258-35.372-38.944-61.223l-5.522-84.68c57.446-5.269 88.777-26.267 104.215-41.341 4.128 4.734 10.026 9.094 17.645 13.029 8.233 4.253 21.935 8.725 40.798 13.319l-6.5 99.672zm-56.96 12.745c0 2.812-2.288 5.1-5.1 5.1s-5.1-2.288-5.1-5.1 2.288-5.1 5.1-5.1 5.1 2.288 5.1 5.1zm65.784-148.088l-.977 14.994c-18.901-4.751-28.215-8.404-32.783-10.764-11.122-5.746-13.632-10.499-13.699-11.958.008-.02.013-.041.02-.061l.017-.042 16.798-44.794c5.927 2.873 11.346 6.844 16.014 11.826 10.414 11.113 15.602 25.603 14.61 40.799zm7.548 158.524a96.378 96.378 0 0 0 3.482-16.555h10.464c-3.073 6.297-7.526 12.495-13.946 16.555zm20.54-39.573a2.847 2.847 0 0 1-2.853 2.619h-12.72l3.326-50.996h13.275c1.04 0 1.722.504 2.109.927.389.423.832 1.144.744 2.181l-3.881 45.269zM511.837 497.019l-9.862-54.436c-5.527-30.507-20.03-58.2-41.943-80.085-21.657-21.63-48.95-36.047-78.93-41.692a152.168 152.168 0 0 0-28.089-2.622h-29.699a10.203 10.203 0 0 0-7.212 2.987L256 381.273l-60.102-60.103a10.2 10.2 0 0 0-7.212-2.987h-29.7c-9.394 0-18.844.882-28.087 2.622h-.002c-29.979 5.645-57.273 20.062-78.93 41.692-21.912 21.885-36.416 49.578-41.943 80.085L.162 497.019a10.196 10.196 0 0 0 10.036 12.016H501.8a10.2 10.2 0 0 0 10.037-12.016zm-248.624-94.111l64.326-64.327h25.476c1.321 0 2.642.02 3.963.06L256 439.619l-14.749-14.749 21.962-21.962zm-104.227-64.327h25.475l57.115 57.116-14.749 14.749-71.803-71.804a124.68 124.68 0 0 1 3.962-.061zM22.412 488.638l7.685-42.418c9.295-51.307 48.902-92.597 99.378-104.278l119.313 119.313a10.202 10.202 0 0 0 14.425 0l119.313-119.313c50.475 11.681 90.082 52.971 99.378 104.278l7.685 42.418H22.412zM147.888 284.558c-5.633 0-10.199 4.566-10.199 10.199v4.08c0 5.633 4.566 10.199 10.199 10.199s10.199-4.566 10.199-10.199v-4.08c.001-5.633-4.565-10.199-10.199-10.199z"></path></svg>
      
        <svg width="false" height="false" id="thumb-up"><path d="M150.669 84.068c7.858-7.823 5.43-23.647-8.181-23.647l-35.813.024c1.36-7.584 3.33-20.156 3.252-21.343-.752-11.242-7.918-24.924-8.228-25.484-1.307-2.434-7.906-5.734-14.547-4.32-8.586 1.838-9.463 7.315-9.428 8.825 0 0 .37 14.983.406 18.981-4.105 9.016-18.259 32.71-22.549 34.536a6.542 6.542 0 0 0-3.401-.955H6.934A6.927 6.927 0 0 0 0 77.618l.006 62.533c.269 3.371 3.133 6.015 6.516 6.015h40.64a6.54 6.54 0 0 0 6.534-6.534v-2.076s1.51-.113 2.196.328c2.613 1.659 5.842 3.747 10.054 3.747h60.647c22.674 0 20.24-20.126 18.169-22.871 3.831-4.171 6.2-11.528 2.966-17.34 2.482-2.631 6.85-9.863 2.941-17.352zM45.766 139.62H6.51V77.212h39.256v62.408zm94.324-56.089l-.37 1.545c10.448 2.971 4.887 15.013-2.608 15.794l-.37 1.545c10.018 2.548 5.239 14.947-2.608 15.794l-.37 1.539c8.181 1.343 6.2 15.305-6.194 15.305l-61.686.024c-4.356 0-8.324-4.964-11.528-4.964H51.56V82.075c3.485-2.16 7.769-4.964 10.15-6.987 4.499-3.837 22.913-33.593 22.913-37.317s-.406-19.834-.406-19.834 3.61-4.654 11.671-1.259c0 0 6.784 12.721 7.476 22.859 0 0-3.055 20.884-4.696 27.436h42.765c10.507.012 8.502 15.013-1.343 16.558z" fill="#FFDA44"></path></svg>
      
        <svg width="false" height="false" id="tools"><g><path d="M474.076 329.142c-27.289-27.286-66.602-37.668-103.637-27.681l-21.287-21.288-.093-.094L214.293 145.31a105.615 105.615 0 0 0 6.673-37.04c0-.558-.058-1.102-.165-1.628-.059-14.806-3.166-29.596-9.324-43.356a8.026 8.026 0 0 0-10.607-4.048 8.028 8.028 0 0 0-4.049 10.607c10.466 23.39 10.574 50.284.295 73.782a8.001 8.001 0 0 0-.636 2.626c-10.3 22.054-29.271 39.26-52.507 47.23a7.973 7.973 0 0 0-2.55.363c-32.651 10.406-67.96 1.848-92.148-22.341-16.555-16.554-25.966-38.864-26.622-61.944l36.362 36.364a8.031 8.031 0 0 0 7.009 2.242l60.413-10.159a8.03 8.03 0 0 0 6.6-6.678l9.31-59.563a8.032 8.032 0 0 0-2.254-6.917L93.54 18.296c30.203-6.836 62.282 2.13 84.545 24.397a92.538 92.538 0 0 1 6.753 7.533c2.773 3.461 7.826 4.021 11.285 1.245a8.028 8.028 0 0 0 1.245-11.285 108.814 108.814 0 0 0-7.927-8.847C159.657 1.553 114.948-7.998 75.538 7.001a8.029 8.029 0 0 0-2.822 13.18l53.137 53.136-7.786 49.813-50.623 8.513-45.941-45.942A8.029 8.029 0 1 0 7.897 90.11c-5.411 33.864 5.813 68.535 30.024 92.748 20.402 20.401 47.523 31.347 75.395 31.401.49.093.994.147 1.51.147 9.359 0 18.438-1.224 27.088-3.508l20.977 20.976.064.064 134.807 134.809a104.654 104.654 0 0 0-3.569 11.414c-.199.8-.271 1.6-.229 2.383-5.797 24.643-2.704 50.605 9.141 73.539a8.029 8.029 0 1 0 14.268-7.368c-12.463-24.129-13.395-53.415-2.491-78.341a7.975 7.975 0 0 0 .629-2.465c10.363-22.162 29.536-39.522 53.055-47.396a7.995 7.995 0 0 0 2.004-.356c32.652-10.411 67.964-1.849 92.154 22.341 16.554 16.555 25.965 38.862 26.621 61.94l-36.36-36.362a8.041 8.041 0 0 0-7.008-2.24l-60.415 10.158a8.031 8.031 0 0 0-6.602 6.678l-9.31 59.564a8.03 8.03 0 0 0 2.255 6.917l46.55 46.55c-30.198 6.834-62.279-2.136-84.544-24.397a92.288 92.288 0 0 1-2.589-2.695 8.034 8.034 0 0 0-11.346-.455 8.031 8.031 0 0 0-.455 11.346c.994 1.077 2.016 2.14 3.036 3.16C342.989 501.091 370.437 512 398.384 512c12.794 0 25.7-2.29 38.073-6.998a8.026 8.026 0 0 0 2.823-13.18l-53.137-53.137 7.784-49.815 50.625-8.512 45.94 45.941a8.035 8.035 0 0 0 8.153 1.96 8.027 8.027 0 0 0 5.453-6.37c5.413-33.864-5.81-68.534-30.022-92.747zM305.03 351.305L174.29 220.563l-.002-.001-.018-.018-15.616-15.615c20.386-9.28 37.34-24.823 48.39-44.158l130.612 130.612.074.075 15.753 15.755c-20.428 9.253-37.391 24.806-48.453 44.092z"></path><path d="M202.35 209.57a8.027 8.027 0 0 0-11.353-.065 8.026 8.026 0 0 0-.066 11.353l99.302 100.453a8.003 8.003 0 0 0 5.71 2.385 8.005 8.005 0 0 0 5.643-2.319 8.025 8.025 0 0 0 .065-11.353L202.35 209.57zM221.342 190.56a8.028 8.028 0 0 0-11.4 11.306l100.022 100.845a8.003 8.003 0 0 0 5.7 2.375 8.028 8.028 0 0 0 5.7-13.682L221.342 190.56zM181.353 310.724a8.03 8.03 0 0 0-6.953-4.014H87.879a8.03 8.03 0 0 0-6.953 4.014l-43.264 74.932a8.03 8.03 0 0 0 0 8.029l43.264 74.93a8.03 8.03 0 0 0 6.953 4.014H174.4a8.03 8.03 0 0 0 6.953-4.014l43.263-74.93a8.03 8.03 0 0 0 0-8.029l-43.263-74.932zm-11.588 145.848H92.514L53.885 389.67l38.629-66.904h77.251l38.628 66.904-38.628 66.902z"></path><path d="M131.138 344.139c-25.106 0-45.531 20.424-45.531 45.53a45.592 45.592 0 0 0 5.477 21.656 8.028 8.028 0 0 0 10.885 3.233 8.029 8.029 0 0 0 3.233-10.884 29.477 29.477 0 0 1-3.537-14.004c0-16.252 13.223-29.473 29.476-29.473s29.474 13.222 29.474 29.473c0 10.418-5.597 20.168-14.633 25.46l-.388.223a29.25 29.25 0 0 1-1.719.907c-.49.234-1.033.469-1.693.736l-.459.182c-.718.275-1.289.476-1.798.635-.028.01-.056.018-.083.026a29.5 29.5 0 0 1-1.801.483l-.476.11a29.514 29.514 0 0 1-3.896.594l-.5.039c-1.59.108-2.474.108-4.042 0l-.508-.039a29.434 29.434 0 0 1-3.905-.595l-.464-.107a29.456 29.456 0 0 1-1.809-.485l-.083-.026c-.508-.157-1.08-.36-1.776-.626l-.481-.191c-4.114-1.653-8.791.338-10.445 4.452a8.028 8.028 0 0 0 4.452 10.445l.699.276c1.023.393 1.889.698 2.718.958l.096.03a46.538 46.538 0 0 0 3.612.948 45.64 45.64 0 0 0 6.796.977c1.165.079 2.154.116 3.112.116.957 0 1.945-.036 3.124-.116a45.821 45.821 0 0 0 7.525-1.147 46.036 46.036 0 0 0 2.966-.809 44.22 44.22 0 0 0 2.74-.966l.69-.273a45.702 45.702 0 0 0 2.674-1.171l.08-.039a45.225 45.225 0 0 0 2.569-1.357c.212-.12.424-.242.61-.351 13.911-8.147 22.551-23.207 22.551-39.301.001-25.104-20.425-45.529-45.532-45.529zM330.712 200.997a8.03 8.03 0 0 0 6.953 4.014h86.521a8.03 8.03 0 0 0 6.953-4.014l43.263-74.93a8.028 8.028 0 0 0 0-8.028l-43.263-74.933a8.03 8.03 0 0 0-6.953-4.014h-86.521a8.03 8.03 0 0 0-6.953 4.014l-43.264 74.933a8.028 8.028 0 0 0 0 8.028l43.264 74.93zM342.3 55.148h77.251l38.628 66.904-38.628 66.902H342.3l-38.629-66.902L342.3 55.148z"></path><path d="M351.754 146.939a8.029 8.029 0 0 0 3.233-10.884 29.477 29.477 0 0 1-3.537-14.004c0-16.252 13.223-29.473 29.476-29.473S410.4 105.8 410.4 122.051c0 10.417-5.597 20.168-14.633 25.46l-.388.223a29.25 29.25 0 0 1-1.719.908c-.49.234-1.033.469-1.693.737l-.459.182c-.718.275-1.289.476-1.798.635-.028.01-.056.018-.083.026-.505.155-1.082.31-1.801.483l-.476.109a29.489 29.489 0 0 1-3.896.594l-.501.039c-1.584.106-2.472.107-4.041 0l-.508-.039a29.599 29.599 0 0 1-3.905-.595l-.464-.107a29.456 29.456 0 0 1-1.809-.485l-.083-.026a29.33 29.33 0 0 1-1.776-.626l-.481-.191a8.03 8.03 0 0 0-5.993 14.897l.699.276c1.023.393 1.889.698 2.718.958l.096.03a46.732 46.732 0 0 0 13.52 2.041c.958 0 1.946-.036 3.124-.116a45.829 45.829 0 0 0 7.526-1.147 47.52 47.52 0 0 0 2.966-.808 44.452 44.452 0 0 0 2.74-.966l.69-.273a45.702 45.702 0 0 0 2.674-1.171l.08-.039a44.59 44.59 0 0 0 2.569-1.357c.212-.12.425-.242.61-.351 13.911-8.147 22.551-23.207 22.551-39.301 0-25.106-20.427-45.53-45.533-45.53s-45.531 20.424-45.531 45.53a45.595 45.595 0 0 0 5.477 21.656 8.028 8.028 0 0 0 10.885 3.232z"></path></g></svg>
      
        <svg width="false" height="false" id="wallet"><path d="M490.6 222.6h-12.5v-84.4c0-19.8-15.6-35.4-34.4-35.4h-9.4V46.4c0-19.8-14.6-35.4-32.3-35.4h-2.1L43.3 102.7c-.1 0-.3.1-.4.1-17.6 1.4-31.9 16.5-31.9 35.4v327.4c0 19.8 15.6 35.4 34.4 35.4h398.3c19.8 0 35.4-15.6 35.4-35.4V379h11.5c6.3 0 10.4-4.2 10.4-10.4V233.1c0-6.3-5.2-10.5-10.4-10.5zM404 30.8c5.2 1 10.4 7.3 10.4 15.6v56.3H126.7L404 30.8zm54.3 434.8c0 8.3-6.3 15.6-14.6 15.6H45.4c-8.3 0-14.6-7.3-14.6-15.6V138.2c0-8.3 6.3-15.6 14.6-15.6h397.2c8.3 0 14.6 7.3 14.6 15.6v84.4H354c-43.8 0-78.2 34.4-78.2 78.2 0 43.8 35.4 78.2 78.2 78.2h104.3v86.6zm21.8-106.4H354c-31.3 0-57.3-26.1-57.3-57.3s26.1-57.3 57.3-57.3h126.1v114.6z"></path><path d="M342.5 302.9c0 6.3 5.2 10.4 10.4 10.4h9.4c5.2 0 10.4-4.2 10.4-10.4 0-6.3-5.2-10.4-10.4-10.4H353c-6.3 0-10.5 4.2-10.5 10.4z"></path></svg>
      
        <svg width="false" height="false" id="walletfull"><path d="M487.59 299.894h-7.662v-69.015c0-10.926-5.438-20.6-13.743-26.478v-9.397c0-13.631-11.089-24.72-24.72-24.72h-5.721l21.889-32.12c7.337-10.766 4.547-25.495-6.219-32.833L302.883 4.111C297.668.556 291.382-.756 285.178.421a23.474 23.474 0 0 0-15.128 9.91L141.849 198.454h-35.675l8.607-87.13c.097-.982.735-1.833 1.625-2.168 11.089-4.181 20.699-11.989 27.059-21.985.501-.787 1.446-1.237 2.424-1.138l55.955 5.528a7.295 7.295 0 1 0 1.434-14.52l-55.955-5.528c-6.495-.636-12.689 2.357-16.169 7.825-4.676 7.35-11.742 13.09-19.895 16.164-6.137 2.314-10.351 7.826-10.999 14.387l-8.748 88.564h-9.303L95.821 60.649c.49-4.96 4.917-8.604 9.883-8.107l113.074 11.17a7.295 7.295 0 1 0 1.434-14.52l-113.074-11.17C94.174 36.743 82.581 46.248 81.3 59.214l-10.972 111.07H51.643c-13.63 0-24.72 11.089-24.72 24.72v6.41c-11.151 5.134-18.915 16.406-18.915 29.465v248.695c0 17.88 14.546 32.426 32.427 32.426h407.067c17.88 0 32.426-14.546 32.426-32.426V410.56h7.662c9.044 0 16.401-7.357 16.401-16.4v-77.865c.001-9.044-7.357-16.401-16.401-16.401zm-46.125-115.018c5.586-.001 10.129 4.543 10.129 10.129v3.717a32.512 32.512 0 0 0-4.092-.267h-30.955l9.253-13.579h15.665zM282.107 18.547a8.984 8.984 0 0 1 5.787-3.791 8.98 8.98 0 0 1 6.772 1.411l148.531 101.22c4.118 2.807 5.186 8.441 2.38 12.559l-46.686 68.506h-11.204l22.889-33.587c3.712-5.447 4.018-12.379.796-18.092-4.282-7.59-6.018-16.527-4.888-25.166.84-6.427-1.988-12.701-7.38-16.375L322.106 52.76c-5.393-3.675-12.267-4.012-17.941-.879-7.625 4.21-16.578 5.863-25.208 4.655-6.4-.898-12.891 1.992-16.548 7.357l-91.699 134.56h-11.204L282.107 18.547zm3.213 123.891c-31.771 0-57.851 24.773-59.976 56.015h-36.979L274.464 72.11h.001a2.605 2.605 0 0 1 2.133-1.147c.111 0 .222.008.333.023 11.738 1.642 23.913-.604 34.285-6.331.816-.452 1.864-.387 2.672.163l76.999 52.473c.806.55 1.249 1.502 1.129 2.426-1.537 11.749.825 23.903 6.648 34.225.467.829.41 1.891-.144 2.706l-28.488 41.804h-24.733c-2.127-31.241-28.206-56.014-59.979-56.014zm45.348 56.016h-90.695c2.09-23.189 21.624-41.424 45.347-41.424 23.724-.001 43.259 18.235 45.348 41.424zm-289.154-3.45c0-5.586 4.543-10.13 10.129-10.13h17.244l-1.341 13.579H41.514v-3.449zm-18.915 35.875c0-9.834 8.001-17.835 17.836-17.835h407.067c9.835 0 17.835 8.001 17.835 17.835v20.244H22.599v-20.244zm442.738 248.695c0 9.834-8 17.835-17.835 17.835H40.435c-9.835 0-17.836-8.001-17.836-17.835V459.33h39.342a7.295 7.295 0 1 0 0-14.59H22.599V265.714h442.738v34.18H395.97c-21.856 0-40.788 12.74-49.773 31.181-.03.062-.064.122-.095.184-.076.157-.142.32-.216.478-1.07 2.273-2 4.626-2.757 7.054l-.006.02a55.151 55.151 0 0 0-2.486 16.416c0 30.511 24.822 55.333 55.332 55.333h69.367v34.18H108.655a7.295 7.295 0 1 0 0 14.59h356.682v20.244zm24.064-85.415c0 .998-.812 1.81-1.811 1.81h-91.618c-15.445 0-28.911-8.639-35.818-21.338a40.21 40.21 0 0 1-2.448-5.41c-1.602-4.366-2.476-9.08-2.476-13.994a40.57 40.57 0 0 1 4.023-17.648c.287-.593.587-1.179.901-1.756 6.907-12.699 20.373-21.338 35.818-21.338h91.618c.998 0 1.811.812 1.811 1.81v77.864z"></path><path d="M397.681 325.627c-16.322 0-29.6 13.279-29.6 29.6s13.278 29.599 29.6 29.599c16.322 0 29.6-13.278 29.6-29.599 0-16.321-13.278-29.6-29.6-29.6zm0 44.608c-8.276 0-15.009-6.733-15.009-15.008 0-8.275 6.733-15.009 15.009-15.009s15.009 6.733 15.009 15.009-6.733 15.008-15.009 15.008z"></path></svg>
      
  </defs>
</svg>
