<?xml version="1.0" standalone="no"?>
<!DOCTYPE svg PUBLIC "-//W3C//DTD SVG 20010904//EN"
 "http://www.w3.org/TR/2001/REC-SVG-20010904/DTD/svg10.dtd">
<svg version="1.0" xmlns="http://www.w3.org/2000/svg"
 width="83.000000pt" height="83.000000pt" viewBox="0 0 83.000000 83.000000"
 preserveAspectRatio="xMidYMid meet">
<metadata>
Created by potrace 1.15, written by Peter Selinger 2001-2017
</metadata>
<g transform="translate(0.000000,83.000000) scale(0.100000,-0.100000)"
fill="#000000" stroke="none">
<path d="M327 750 c-164 -43 -304 -84 -312 -90 -23 -19 -22 -621 1 -644 13
-14 62 -16 378 -16 296 0 366 3 381 14 16 12 20 29 23 98 3 57 8 85 18 91 11
6 14 37 14 138 0 122 -1 131 -20 136 -17 5 -20 15 -22 92 l-3 86 -32 15 c-31
14 -33 18 -33 71 0 65 -19 90 -66 88 -16 -1 -163 -36 -327 -79z m347 24 c3 -9
6 -33 6 -55 l0 -39 -207 1 c-115 1 -201 3 -193 6 23 7 374 101 381 102 4 1 10
-6 13 -15z m74 -221 l3 -73 -88 0 c-48 0 -105 -5 -125 -10 -76 -22 -117 -115
-81 -187 32 -65 60 -78 184 -81 l110 -4 -3 -76 -3 -77 -350 0 -350 0 -3 280
c-1 154 0 285 3 292 3 11 77 13 352 11 l348 -3 3 -72z m42 -213 l0 -90 -121 0
c-120 0 -121 0 -150 29 -45 45 -37 105 19 135 19 11 60 15 140 16 l112 0 0
-90z"/>
</g>
</svg>
