<svg id="svg" version="1.1" width="400" height="400" xmlns="http://www.w3.org/2000/svg" xmlns:xlink="http://www.w3.org/1999/xlink" style="display: block;"><g id="svgg"><path id="path0" d="M297.293 1.200 C 297.293 1.970,297.375 2.285,297.476 1.900 C 297.576 1.515,297.576 0.885,297.476 0.500 C 297.375 0.115,297.293 0.430,297.293 1.200 M298.893 1.200 C 298.893 1.970,298.975 2.285,299.076 1.900 C 299.176 1.515,299.176 0.885,299.076 0.500 C 298.975 0.115,298.893 0.430,298.893 1.200 M280.705 4.240 C 279.391 4.936,278.041 7.200,278.939 7.200 C 279.816 7.200,282.619 4.457,282.179 4.029 C 281.947 3.803,281.377 3.884,280.705 4.240 M278.497 32.300 C 277.782 33.215,277.571 33.301,277.241 32.813 C 276.948 32.378,276.865 32.592,276.922 33.638 L 277.000 35.051 278.310 34.280 C 279.584 33.530,280.400 32.494,280.400 31.626 C 280.400 30.828,279.359 31.197,278.497 32.300 M131.351 42.175 C 130.014 42.757,128.799 44.193,128.801 45.189 C 128.802 45.525,129.154 45.224,129.584 44.519 C 130.013 43.815,130.913 42.955,131.582 42.609 C 133.483 41.627,133.319 41.319,131.351 42.175 M111.687 47.824 C 110.361 48.753,109.360 50.800,110.232 50.800 C 110.591 50.800,111.247 50.339,111.691 49.776 C 112.134 49.212,112.745 48.847,113.048 48.963 C 113.644 49.192,113.741 48.834,113.357 47.833 C 113.054 47.043,112.804 47.041,111.687 47.824 M112.400 50.200 C 111.992 50.691,112.020 50.800,112.551 50.800 C 112.908 50.800,113.200 50.530,113.200 50.200 C 113.200 49.870,113.132 49.600,113.049 49.600 C 112.966 49.600,112.674 49.870,112.400 50.200 M147.900 66.405 C 146.666 67.642,146.488 68.400,147.431 68.400 C 148.141 68.400,150.400 66.293,150.400 65.631 C 150.400 64.854,149.022 65.281,147.900 66.405 M257.646 201.900 C 257.672 202.945,257.779 203.440,257.885 203.000 C 257.991 202.560,258.544 201.705,259.114 201.100 L 260.150 200.000 258.875 200.000 C 257.614 200.000,257.601 200.021,257.646 201.900 M297.852 244.228 C 296.479 245.562,295.957 246.800,296.769 246.800 C 297.426 246.800,299.498 244.834,299.715 244.005 C 300.066 242.661,299.381 242.743,297.852 244.228 M296.400 243.849 C 296.400 244.380,296.509 244.408,297.000 244.000 C 297.330 243.726,297.600 243.434,297.600 243.351 C 297.600 243.268,297.330 243.200,297.000 243.200 C 296.670 243.200,296.400 243.492,296.400 243.849 M212.400 248.338 C 212.400 248.725,213.728 250.000,214.131 250.000 C 214.279 250.000,214.400 249.550,214.400 249.000 C 214.400 248.200,214.200 248.000,213.400 248.000 C 212.850 248.000,212.400 248.152,212.400 248.338 M291.600 248.649 C 291.600 249.180,291.709 249.208,292.200 248.800 C 292.530 248.526,292.800 248.234,292.800 248.151 C 292.800 248.068,292.530 248.000,292.200 248.000 C 291.870 248.000,291.600 248.292,291.600 248.649 M293.060 249.040 C 292.606 249.664,292.087 249.965,291.712 249.822 C 291.247 249.643,291.157 249.794,291.331 250.459 C 291.456 250.938,291.378 251.705,291.157 252.165 C 290.816 252.874,290.835 252.909,291.278 252.394 C 291.565 252.061,292.291 251.475,292.892 251.091 C 294.401 250.125,295.522 247.995,294.510 248.013 C 294.120 248.019,293.467 248.482,293.060 249.040 M262.668 276.062 C 262.372 277.194,262.475 277.291,263.801 277.130 L 264.875 277.000 263.890 276.079 L 262.904 275.158 262.668 276.062 M6.000 393.800 C 6.517 394.350,6.998 394.800,7.070 394.800 C 7.141 394.800,7.200 394.350,7.200 393.800 C 7.200 392.983,7.005 392.800,6.130 392.800 L 5.061 392.800 6.000 393.800 " stroke="none" fill="#000000" fill-rule="evenodd"></path><path id="path1" d="M297.600 1.200 C 297.600 2.000,297.800 2.400,298.200 2.400 C 298.600 2.400,298.800 2.000,298.800 1.200 C 298.800 0.400,298.600 0.000,298.200 0.000 C 297.800 0.000,297.600 0.400,297.600 1.200 M280.898 5.816 C 279.951 6.480,279.707 7.200,280.429 7.200 C 281.037 7.200,282.090 6.070,281.930 5.590 C 281.852 5.356,281.420 5.451,280.898 5.816 M264.900 7.476 C 265.285 7.576,265.915 7.576,266.300 7.476 C 266.685 7.375,266.370 7.293,265.600 7.293 C 264.830 7.293,264.515 7.375,264.900 7.476 M246.500 12.276 C 246.885 12.376,247.515 12.376,247.900 12.276 C 248.285 12.175,247.970 12.093,247.200 12.093 C 246.430 12.093,246.115 12.175,246.500 12.276 M243.738 13.017 C 243.378 13.955,243.767 14.066,244.319 13.182 C 244.628 12.687,244.654 12.400,244.391 12.400 C 244.162 12.400,243.868 12.678,243.738 13.017 M344.566 12.745 C 344.721 12.995,345.165 13.200,345.554 13.200 C 346.440 13.200,347.734 14.573,348.571 16.400 C 348.923 17.170,349.119 17.470,349.006 17.067 C 348.893 16.664,348.800 15.919,348.800 15.412 C 348.800 14.035,347.595 12.875,345.842 12.565 C 344.722 12.367,344.364 12.417,344.566 12.745 M205.680 22.480 C 205.416 22.744,205.205 23.239,205.212 23.580 C 205.222 24.077,205.308 24.056,205.646 23.474 C 205.878 23.075,206.458 22.592,206.934 22.400 C 207.774 22.061,207.775 22.050,206.980 22.025 C 206.529 22.011,205.944 22.216,205.680 22.480 M314.573 25.568 C 314.368 25.763,313.840 26.009,313.400 26.115 L 312.600 26.307 313.400 26.347 C 314.291 26.392,315.497 25.763,315.162 25.428 C 315.043 25.310,314.779 25.373,314.573 25.568 M321.224 27.081 C 321.182 28.653,322.064 29.959,323.486 30.428 C 324.786 30.857,326.055 30.522,324.804 30.080 C 324.117 29.837,322.421 28.133,321.724 26.985 C 321.261 26.223,321.246 26.226,321.224 27.081 M186.889 27.423 C 186.400 27.765,186.012 28.350,186.027 28.723 C 186.048 29.236,186.160 29.181,186.490 28.495 C 186.730 27.997,187.483 27.429,188.163 27.231 C 189.006 26.986,189.142 26.861,188.589 26.836 C 188.143 26.816,187.378 27.080,186.889 27.423 M173.705 31.487 C 174.314 31.579,175.214 31.577,175.705 31.482 C 176.197 31.387,175.700 31.311,174.600 31.314 C 173.500 31.317,173.097 31.395,173.705 31.487 M277.796 31.607 C 277.658 31.830,277.377 31.909,277.172 31.783 C 276.706 31.495,276.700 32.023,277.161 32.751 C 277.567 33.391,278.219 33.085,278.812 31.978 C 279.262 31.137,278.303 30.787,277.796 31.607 M168.299 32.065 C 167.257 32.446,167.129 32.691,166.613 35.301 C 166.537 35.686,166.638 35.900,166.837 35.777 C 167.037 35.654,167.206 35.248,167.213 34.876 C 167.233 33.788,168.178 32.837,169.846 32.226 C 171.095 31.768,171.204 31.657,170.400 31.660 C 169.850 31.662,168.905 31.844,168.299 32.065 M156.700 36.282 C 157.195 36.378,158.005 36.378,158.500 36.282 C 158.995 36.187,158.590 36.109,157.600 36.109 C 156.610 36.109,156.205 36.187,156.700 36.282 M260.936 37.165 C 260.690 37.815,259.909 38.633,259.168 39.017 C 255.634 40.844,256.531 41.228,260.281 39.493 C 261.360 38.994,262.565 36.000,261.688 36.000 C 261.516 36.000,261.178 36.524,260.936 37.165 M151.400 36.669 C 148.901 37.219,147.600 38.434,147.600 40.219 C 147.600 41.127,148.225 40.902,148.721 39.815 C 148.967 39.273,149.896 38.370,150.785 37.810 C 151.673 37.249,152.400 36.702,152.400 36.595 C 152.400 36.488,152.355 36.421,152.300 36.446 C 152.245 36.472,151.840 36.572,151.400 36.669 M139.500 41.089 C 140.215 41.178,141.385 41.178,142.100 41.089 C 142.815 41.001,142.230 40.928,140.800 40.928 C 139.370 40.928,138.785 41.001,139.500 41.089 M242.544 41.980 C 242.254 43.431,241.177 44.448,239.260 45.084 L 237.800 45.568 239.600 45.346 C 241.761 45.079,242.621 44.303,242.973 42.300 C 243.282 40.539,242.891 40.247,242.544 41.980 M131.326 42.780 C 129.593 43.836,128.613 45.600,129.759 45.600 C 130.361 45.600,132.800 43.022,132.800 42.386 C 132.800 41.879,132.805 41.878,131.326 42.780 M126.105 45.887 C 126.714 45.979,127.614 45.977,128.105 45.882 C 128.597 45.787,128.100 45.711,127.000 45.714 C 125.900 45.717,125.497 45.795,126.105 45.887 M113.611 46.587 C 113.343 46.909,113.217 47.404,113.331 47.687 C 113.463 48.017,113.548 47.958,113.568 47.520 C 113.586 47.146,113.915 46.656,114.300 46.432 C 114.685 46.208,114.797 46.019,114.549 46.012 C 114.301 46.005,113.879 46.264,113.611 46.587 M222.786 48.892 C 222.448 49.335,221.458 49.850,220.586 50.036 L 219.000 50.374 220.755 50.217 C 222.501 50.062,223.826 49.239,223.546 48.483 C 223.466 48.265,223.124 48.449,222.786 48.892 M111.798 49.602 C 110.793 50.713,111.337 51.065,112.565 50.099 C 113.119 49.663,113.459 49.192,113.320 49.053 C 112.902 48.636,112.561 48.759,111.798 49.602 M204.493 51.600 C 204.493 52.370,204.575 52.685,204.676 52.300 C 204.776 51.915,204.776 51.285,204.676 50.900 C 204.575 50.515,204.493 50.830,204.493 51.600 M185.354 55.777 C 185.232 56.094,185.217 56.679,185.320 57.077 C 185.444 57.556,185.523 57.434,185.554 56.715 L 185.600 55.630 189.300 55.498 L 193.000 55.366 189.287 55.283 C 186.367 55.218,185.528 55.323,185.354 55.777 M75.189 56.421 C 74.947 56.872,74.830 57.547,74.928 57.921 C 75.060 58.419,75.120 58.367,75.154 57.723 C 75.179 57.240,75.600 56.565,76.089 56.223 C 76.802 55.723,76.845 55.600,76.303 55.600 C 75.932 55.600,75.430 55.969,75.189 56.421 M173.500 60.289 C 174.215 60.378,175.385 60.378,176.100 60.289 C 176.815 60.201,176.230 60.128,174.800 60.128 C 173.370 60.128,172.785 60.201,173.500 60.289 M147.117 65.043 C 147.507 65.220,147.522 65.412,147.179 65.825 C 146.344 66.831,146.970 67.315,148.012 66.470 C 149.107 65.582,149.058 65.412,147.600 65.053 C 147.050 64.918,146.833 64.913,147.117 65.043 M158.300 65.082 C 158.795 65.178,159.605 65.178,160.100 65.082 C 160.595 64.987,160.190 64.909,159.200 64.909 C 158.210 64.909,157.805 64.987,158.300 65.082 M37.289 65.823 C 36.800 66.165,36.414 66.840,36.432 67.323 C 36.459 68.096,36.511 68.069,36.865 67.099 C 37.090 66.483,37.649 65.918,38.134 65.815 C 38.610 65.714,39.360 65.555,39.800 65.462 C 40.314 65.353,40.168 65.276,39.389 65.246 C 38.723 65.221,37.778 65.480,37.289 65.823 M141.305 69.887 C 141.914 69.979,142.814 69.977,143.305 69.882 C 143.797 69.787,143.300 69.711,142.200 69.714 C 141.100 69.717,140.697 69.795,141.305 69.887 M373.293 78.400 C 373.293 79.170,373.375 79.485,373.476 79.100 C 373.576 78.715,373.576 78.085,373.476 77.700 C 373.375 77.315,373.293 77.630,373.293 78.400 M0.000 85.200 C 0.000 85.420,0.540 85.600,1.200 85.600 C 1.860 85.600,2.400 85.420,2.400 85.200 C 2.400 84.980,1.860 84.800,1.200 84.800 C 0.540 84.800,0.000 84.980,0.000 85.200 M381.700 85.232 C 382.085 85.456,382.414 85.946,382.432 86.320 C 382.452 86.758,382.537 86.817,382.669 86.487 C 382.909 85.891,382.111 84.794,381.451 84.812 C 381.203 84.819,381.315 85.008,381.700 85.232 M0.500 87.876 C 0.885 87.976,1.515 87.976,1.900 87.876 C 2.285 87.775,1.970 87.693,1.200 87.693 C 0.430 87.693,0.115 87.775,0.500 87.876 M109.700 98.700 C 154.085 98.756,226.715 98.756,271.100 98.700 C 315.485 98.644,279.170 98.598,190.400 98.598 C 101.630 98.598,65.315 98.644,109.700 98.700 M25.372 99.771 C 25.095 100.873,24.022 101.953,22.464 102.698 C 21.442 103.187,21.463 103.200,23.000 103.016 C 24.873 102.792,26.000 101.642,26.000 99.956 C 26.000 98.546,25.701 98.458,25.372 99.771 M354.806 101.077 C 354.799 102.143,356.211 103.208,357.589 103.177 C 358.476 103.158,358.430 103.096,357.210 102.677 C 356.445 102.415,355.594 101.751,355.316 101.200 C 354.834 100.243,354.812 100.238,354.806 101.077 M269.294 166.815 C 268.236 167.240,267.494 168.919,267.721 170.377 C 267.860 171.270,267.888 171.240,267.940 170.144 C 268.029 168.291,269.179 167.118,271.236 166.785 C 272.872 166.521,272.899 166.498,271.600 166.475 C 270.830 166.462,269.792 166.614,269.294 166.815 M392.705 166.683 C 393.202 166.779,393.922 166.775,394.305 166.675 C 394.687 166.575,394.280 166.496,393.400 166.501 C 392.520 166.505,392.207 166.587,392.705 166.683 M395.911 167.423 C 396.400 167.765,396.821 168.440,396.846 168.923 C 396.880 169.567,396.940 169.619,397.072 169.121 C 397.321 168.174,396.507 166.800,395.697 166.800 C 395.155 166.800,395.198 166.923,395.911 167.423 M250.504 171.482 C 249.258 171.722,248.391 173.115,248.446 174.789 L 248.492 176.200 248.780 174.721 C 249.168 172.723,249.769 172.101,251.735 171.659 C 253.367 171.293,252.288 171.138,250.504 171.482 M242.269 176.388 C 240.208 176.787,237.350 180.800,239.127 180.800 C 239.296 180.800,239.607 180.215,239.817 179.500 C 240.100 178.539,240.656 177.970,241.949 177.318 C 243.457 176.557,244.502 175.898,243.967 176.046 C 243.875 176.071,243.111 176.225,242.269 176.388 M234.412 181.184 C 233.459 181.787,234.109 181.914,235.200 181.339 C 235.751 181.048,235.931 180.812,235.600 180.812 C 235.270 180.812,234.735 180.980,234.412 181.184 M224.812 190.784 C 223.859 191.387,224.509 191.514,225.600 190.939 C 226.151 190.648,226.331 190.412,226.000 190.412 C 225.670 190.412,225.135 190.580,224.812 190.784 M270.196 196.515 C 269.754 197.222,268.993 197.976,268.504 198.192 C 267.031 198.841,267.036 199.591,268.512 199.168 C 270.071 198.721,271.067 197.738,271.418 196.300 C 271.777 194.829,271.186 194.933,270.196 196.515 M220.832 196.300 C 220.309 196.728,219.901 197.622,219.784 198.600 C 219.597 200.166,219.602 200.174,220.049 199.000 C 220.691 197.309,221.541 196.444,222.967 196.030 L 224.200 195.672 222.944 195.636 C 222.254 195.616,221.303 195.915,220.832 196.300 M215.429 205.829 C 215.083 206.174,214.821 206.939,214.846 207.529 C 214.883 208.364,214.936 208.424,215.089 207.800 C 215.351 206.736,215.995 205.982,216.986 205.581 C 217.781 205.259,217.779 205.250,216.929 205.225 C 216.449 205.211,215.774 205.483,215.429 205.829 M210.451 224.760 C 210.149 224.951,209.969 225.271,210.051 225.470 C 210.133 225.670,210.515 225.511,210.900 225.117 C 211.634 224.365,211.386 224.167,210.451 224.760 M270.084 224.852 C 268.724 225.244,267.970 226.448,268.033 228.126 C 268.060 228.856,268.157 228.791,268.621 227.731 C 269.238 226.323,270.599 225.200,271.689 225.200 C 272.080 225.200,272.400 225.020,272.400 224.800 C 272.400 224.326,271.864 224.338,270.084 224.852 M293.997 224.757 C 294.545 224.910,295.217 225.477,295.491 226.017 C 295.836 226.699,295.990 226.795,295.994 226.329 C 296.002 225.376,294.897 224.393,293.871 224.440 C 293.075 224.476,293.086 224.504,293.997 224.757 M209.714 229.000 C 209.717 230.100,209.795 230.503,209.887 229.895 C 209.979 229.286,209.977 228.386,209.882 227.895 C 209.787 227.403,209.711 227.900,209.714 229.000 M296.400 229.912 C 296.400 230.084,296.926 230.423,297.568 230.665 C 298.311 230.946,299.049 231.719,299.596 232.792 C 300.635 234.829,301.012 234.673,300.415 232.455 C 299.863 230.406,296.400 228.212,296.400 229.912 M300.893 236.400 C 300.893 237.170,300.975 237.485,301.076 237.100 C 301.176 236.715,301.176 236.085,301.076 235.700 C 300.975 235.315,300.893 235.630,300.893 236.400 M209.709 243.600 C 209.709 244.590,209.787 244.995,209.882 244.500 C 209.978 244.005,209.978 243.195,209.882 242.700 C 209.787 242.205,209.709 242.610,209.709 243.600 M296.998 244.002 C 296.598 244.444,296.389 244.923,296.533 245.067 C 296.825 245.358,298.400 244.069,298.400 243.538 C 298.400 242.954,297.752 243.169,296.998 244.002 M210.012 246.651 C 209.994 247.311,211.091 248.109,211.687 247.869 C 212.017 247.737,211.958 247.652,211.520 247.632 C 211.146 247.614,210.656 247.285,210.432 246.900 C 210.208 246.515,210.019 246.403,210.012 246.651 M292.404 248.596 C 292.132 248.923,291.750 249.093,291.555 248.972 C 291.360 248.851,291.200 248.933,291.200 249.153 C 291.200 249.945,292.066 250.064,292.825 249.377 C 293.251 248.992,293.600 248.524,293.600 248.338 C 293.600 247.803,292.944 247.944,292.404 248.596 M239.600 248.870 C 241.509 249.413,242.334 250.245,242.657 251.955 C 242.807 252.750,243.001 253.188,243.088 252.930 C 243.804 250.808,241.569 248.328,239.040 248.436 C 238.498 248.459,238.697 248.613,239.600 248.870 M272.454 250.671 C 272.397 251.591,273.341 252.800,274.118 252.800 C 274.371 252.800,274.190 252.528,273.716 252.196 C 273.242 251.865,272.777 251.190,272.682 250.696 C 272.510 249.804,272.509 249.804,272.454 250.671 M245.800 258.289 C 246.943 258.570,247.527 259.129,247.722 260.129 L 247.891 261.000 247.946 260.129 C 248.015 259.014,246.992 257.987,245.871 258.046 C 245.060 258.090,245.055 258.106,245.800 258.289 M249.000 263.684 C 250.677 264.272,251.513 265.092,251.809 266.441 C 252.168 268.074,252.673 267.886,252.475 266.194 C 252.274 264.470,250.790 263.187,249.046 263.232 L 247.800 263.263 249.000 263.684 M214.806 265.271 C 214.798 266.224,215.903 267.207,216.929 267.160 C 217.725 267.124,217.714 267.096,216.803 266.843 C 216.255 266.690,215.583 266.123,215.309 265.583 C 214.964 264.901,214.810 264.805,214.806 265.271 M254.479 267.947 C 256.361 268.354,257.111 268.984,257.316 270.329 L 257.480 271.400 257.540 270.376 C 257.634 268.771,256.778 267.965,254.786 267.787 C 253.068 267.633,253.057 267.639,254.479 267.947 M219.776 273.736 C 220.018 275.742,220.576 276.355,222.430 276.651 C 223.366 276.801,224.019 277.148,224.118 277.548 C 224.229 277.998,224.266 277.962,224.239 277.434 C 224.214 276.945,223.735 276.510,222.918 276.234 C 221.330 275.697,220.741 275.123,220.095 273.482 L 219.590 272.200 219.776 273.736 M238.989 293.000 C 239.205 294.851,240.368 296.018,241.944 295.964 C 242.962 295.929,242.955 295.915,241.750 295.566 C 240.252 295.131,239.810 294.645,239.238 292.800 L 238.803 291.400 238.989 293.000 M248.454 298.526 C 248.374 299.605,249.135 300.800,249.903 300.800 C 250.454 300.800,250.419 300.689,249.716 300.196 C 249.242 299.865,248.777 299.190,248.682 298.696 C 248.556 298.046,248.494 297.999,248.454 298.526 M263.623 302.481 C 264.097 304.134,264.650 304.635,266.566 305.151 C 268.244 305.602,268.125 305.135,266.334 304.242 C 265.821 303.986,265.041 303.204,264.601 302.504 C 263.570 300.865,263.157 300.856,263.623 302.481 M387.129 372.894 C 386.836 375.312,385.880 376.764,384.382 377.064 C 383.732 377.194,383.200 377.439,383.200 377.608 C 383.200 378.154,386.162 377.267,386.673 376.568 C 387.239 375.793,387.754 372.855,387.517 371.747 C 387.429 371.336,387.254 371.852,387.129 372.894 M382.214 388.200 C 381.441 390.415,381.091 390.886,379.826 391.415 C 377.706 392.301,377.766 392.805,379.901 392.043 C 381.778 391.373,383.185 389.224,382.658 387.834 C 382.567 387.595,382.368 387.760,382.214 388.200 M377.528 395.290 C 377.458 395.779,376.950 396.407,376.400 396.684 C 375.716 397.029,375.612 397.190,376.071 397.194 C 376.972 397.202,378.000 396.124,378.000 395.171 C 378.000 394.118,377.685 394.197,377.528 395.290 M368.493 398.800 C 368.493 399.570,368.575 399.885,368.676 399.500 C 368.776 399.115,368.776 398.485,368.676 398.100 C 368.575 397.715,368.493 398.030,368.493 398.800 " stroke="none" fill="#0000ff" fill-rule="evenodd"></path><path id="path2" d="M299.200 1.200 L 299.200 2.400 296.500 2.409 C 283.278 2.451,282.507 2.603,282.157 5.240 L 281.897 7.200 279.048 7.239 C 277.482 7.260,274.040 7.337,271.400 7.410 C 268.760 7.483,266.040 7.552,265.356 7.563 C 263.955 7.585,262.990 8.476,263.351 9.416 C 263.489 9.776,263.423 9.938,263.195 9.797 C 262.968 9.656,262.800 10.072,262.800 10.776 C 262.800 12.171,263.180 12.116,254.100 12.041 C 251.625 12.020,249.600 12.138,249.600 12.302 C 249.599 12.466,248.513 12.600,247.185 12.600 C 244.644 12.600,243.825 13.114,244.157 14.501 C 244.250 14.886,244.162 15.100,243.963 14.977 C 243.763 14.854,243.600 15.213,243.600 15.776 C 243.600 16.954,243.973 16.898,236.451 16.847 C 233.729 16.828,231.315 16.929,231.086 17.070 C 230.858 17.212,229.647 17.344,228.397 17.364 C 225.682 17.407,224.879 17.968,224.545 20.052 L 224.298 21.600 222.049 21.633 C 220.812 21.652,217.820 21.739,215.400 21.828 C 212.980 21.917,210.570 21.992,210.043 21.994 C 207.304 22.009,206.008 22.759,205.511 24.617 C 205.080 26.227,204.916 26.401,203.817 26.415 C 196.300 26.506,189.356 27.000,187.939 27.543 C 186.917 27.936,185.682 30.362,186.133 31.092 C 186.238 31.261,184.316 31.405,181.862 31.411 C 171.265 31.436,168.174 32.130,167.430 34.653 L 167.061 35.906 162.696 36.189 C 160.295 36.345,157.078 36.460,155.548 36.446 C 153.576 36.427,152.846 36.552,153.044 36.872 C 153.224 37.162,153.143 37.212,152.817 37.011 C 152.538 36.838,152.196 36.859,152.055 37.057 C 151.915 37.255,151.297 37.638,150.681 37.908 C 150.066 38.178,149.258 38.931,148.885 39.581 C 148.011 41.104,147.732 41.159,140.389 41.234 C 133.907 41.300,133.019 41.480,132.596 42.812 C 132.454 43.260,131.857 44.115,131.269 44.713 L 130.200 45.800 122.400 46.000 C 113.537 46.227,113.777 46.157,113.500 48.611 C 113.232 50.989,114.108 50.771,104.578 50.822 C 95.527 50.871,94.280 51.129,94.415 52.926 C 94.609 55.521,94.432 55.598,88.253 55.620 C 75.642 55.665,74.860 55.827,75.321 58.300 C 75.414 58.795,75.334 59.200,75.145 59.200 C 74.955 59.200,74.800 59.470,74.800 59.800 C 74.800 60.302,73.937 60.403,69.500 60.417 C 57.039 60.456,55.724 60.736,56.096 63.270 C 56.183 63.868,56.108 64.267,55.928 64.155 C 55.747 64.044,55.600 64.233,55.600 64.576 C 55.600 65.113,54.750 65.203,49.500 65.220 C 38.326 65.257,37.447 65.463,36.755 68.213 L 36.305 70.000 31.453 70.037 C 28.784 70.057,25.300 70.055,23.711 70.034 C 21.578 70.005,20.855 70.126,20.946 70.497 C 21.014 70.774,20.993 70.865,20.901 70.700 C 20.117 69.297,17.606 70.990,17.321 73.114 L 17.095 74.800 14.847 74.839 C 13.611 74.861,12.240 74.918,11.800 74.966 C 11.360 75.013,10.518 75.086,9.929 75.126 C 8.516 75.223,7.535 76.254,7.618 77.553 C 7.735 79.384,7.638 79.492,5.642 79.757 C 3.670 80.018,2.681 80.692,2.834 81.670 C 3.136 83.603,2.280 85.600,1.149 85.600 C -0.655 85.600,-0.520 87.485,1.300 87.711 L 2.600 87.872 1.300 87.936 L 0.000 88.000 0.000 237.800 L 0.000 387.600 1.200 387.600 C 2.371 387.600,2.400 387.648,2.400 389.571 C 2.400 392.074,3.081 392.800,5.429 392.800 L 7.200 392.800 7.200 394.571 C 7.200 396.919,7.926 397.600,10.429 397.600 C 12.352 397.600,12.400 397.629,12.400 398.800 L 12.400 400.000 190.400 400.000 L 368.400 400.000 368.400 398.800 C 368.400 397.937,368.597 397.590,369.100 397.564 C 376.343 397.192,376.861 396.970,377.770 393.843 C 378.265 392.142,378.617 391.647,379.667 391.177 C 382.413 389.948,382.962 387.885,383.185 377.949 C 383.193 377.590,383.764 377.063,384.454 376.778 C 387.479 375.525,387.375 376.769,387.600 339.200 L 387.800 305.800 391.760 305.707 C 396.149 305.605,397.296 305.078,397.179 303.218 C 397.062 301.349,397.166 301.200,398.600 301.200 L 400.000 301.200 400.000 236.200 L 400.000 171.200 398.638 171.200 C 397.388 171.200,397.232 171.061,396.738 169.509 C 396.083 167.450,394.884 166.735,392.338 166.888 C 391.313 166.950,390.559 166.865,390.661 166.700 C 390.764 166.535,389.127 166.400,387.024 166.400 L 383.200 166.400 383.167 132.300 C 383.148 113.545,383.138 96.850,383.144 95.200 C 383.170 87.887,382.418 85.386,380.060 84.953 C 378.271 84.624,378.014 84.266,378.006 82.090 C 377.999 80.132,377.026 79.468,374.561 79.740 C 373.386 79.869,373.200 79.771,373.200 79.025 C 373.200 78.549,372.975 77.918,372.700 77.621 C 372.300 77.190,372.300 77.139,372.700 77.365 C 373.418 77.770,373.344 76.218,372.618 75.615 C 372.297 75.349,371.847 75.247,371.618 75.389 C 371.388 75.531,371.200 75.443,371.200 75.193 C 371.200 74.933,370.645 74.769,369.900 74.810 C 369.185 74.849,367.499 74.863,366.153 74.841 L 363.705 74.800 363.483 73.145 C 363.102 70.304,362.823 70.200,355.586 70.200 L 349.201 70.200 349.200 43.876 C 349.200 29.398,349.065 17.636,348.900 17.738 C 348.735 17.840,348.574 17.488,348.542 16.955 C 348.454 15.497,347.300 14.001,345.769 13.361 C 344.459 12.814,344.400 12.699,344.394 10.695 C 344.387 8.184,343.983 7.407,342.841 7.705 C 342.378 7.826,342.000 7.762,342.000 7.563 C 342.000 7.363,341.460 7.200,340.800 7.200 C 339.833 7.200,339.593 7.025,339.563 6.300 C 339.458 3.714,339.366 3.206,339.000 3.171 C 338.780 3.149,338.385 2.953,338.121 2.735 C 337.858 2.516,337.228 2.371,336.721 2.413 C 335.025 2.552,334.800 2.410,334.800 1.200 L 334.800 0.000 317.000 0.000 L 299.200 0.000 299.200 1.200 M320.621 23.832 C 320.775 25.059,321.131 26.152,321.414 26.261 C 321.697 26.369,322.040 26.904,322.177 27.450 C 322.314 27.996,323.050 28.811,323.813 29.261 L 325.200 30.079 325.200 50.240 L 325.200 70.400 228.700 70.341 C 167.190 70.304,133.868 70.150,136.800 69.919 C 139.330 69.718,141.831 69.565,142.359 69.578 C 142.886 69.590,143.595 69.376,143.935 69.100 C 144.429 68.701,144.493 68.700,144.253 69.100 C 143.881 69.719,144.934 69.770,146.026 69.186 C 146.623 68.866,146.800 68.341,146.800 66.886 L 146.799 65.000 150.700 64.987 C 164.779 64.940,166.209 64.651,165.927 61.902 C 165.752 60.185,166.599 60.015,175.510 59.983 C 179.531 59.968,182.725 59.803,182.610 59.616 C 182.494 59.428,182.714 59.350,183.099 59.443 C 184.250 59.718,184.898 58.984,184.950 57.345 C 185.018 55.246,185.045 55.237,192.033 55.178 C 195.420 55.149,198.530 54.945,198.944 54.723 C 199.478 54.437,199.618 54.448,199.425 54.760 C 199.260 55.027,199.486 55.200,200.000 55.200 C 200.466 55.200,200.756 55.053,200.645 54.872 C 200.533 54.692,200.928 54.614,201.521 54.698 C 203.078 54.918,204.019 54.028,204.279 52.086 L 204.505 50.400 210.753 50.376 C 221.271 50.335,222.631 49.978,223.371 47.062 L 223.741 45.600 228.771 45.558 C 231.537 45.535,234.555 45.525,235.478 45.537 C 239.296 45.587,241.763 44.182,242.566 41.500 C 242.751 40.879,243.395 40.798,248.287 40.778 C 255.970 40.748,256.931 40.653,257.880 39.835 C 260.128 37.898,261.084 36.950,261.235 36.508 C 261.354 36.158,263.279 36.009,268.191 35.968 C 276.511 35.898,276.800 35.813,276.800 33.434 C 276.800 31.096,276.315 31.222,285.550 31.167 C 289.977 31.141,293.600 30.963,293.600 30.772 C 293.600 30.581,293.872 30.530,294.205 30.657 C 295.197 31.038,296.000 30.017,296.000 28.375 C 296.000 26.342,295.635 26.431,304.344 26.357 C 308.555 26.321,312.000 26.161,312.000 26.001 C 312.000 25.842,312.422 25.792,312.937 25.890 C 314.203 26.132,315.316 24.970,315.117 23.615 C 314.890 22.072,315.527 21.642,318.071 21.620 L 320.342 21.600 320.621 23.832 M353.338 98.500 C 353.236 98.665,353.483 98.800,353.887 98.800 C 354.360 98.800,354.902 99.405,355.410 100.500 C 356.056 101.891,356.473 102.267,357.700 102.571 L 359.200 102.941 359.200 134.656 L 359.200 166.370 315.100 166.485 C 278.868 166.580,270.812 166.697,269.944 167.144 C 268.829 167.719,268.000 169.115,268.000 170.419 C 268.000 171.163,267.675 171.200,261.100 171.210 C 251.481 171.223,249.502 171.785,248.963 174.655 C 248.703 176.044,248.270 176.224,245.699 176.016 C 243.939 175.873,240.498 177.873,239.964 179.350 C 239.505 180.617,239.337 180.715,237.246 180.931 C 234.694 181.194,233.941 181.892,234.074 183.872 C 234.184 185.507,234.002 185.678,232.051 185.772 C 230.006 185.871,229.133 186.610,229.216 188.169 C 229.341 190.525,229.264 190.701,228.205 190.499 C 227.516 190.367,227.130 190.518,226.949 190.988 C 226.758 191.486,226.608 191.536,226.385 191.175 C 225.952 190.475,224.661 191.060,224.954 191.824 C 225.089 192.177,225.022 192.337,224.795 192.197 C 224.578 192.063,224.400 192.334,224.400 192.800 C 224.400 193.362,224.569 193.552,224.900 193.365 C 225.300 193.139,225.300 193.190,224.900 193.621 C 224.625 193.918,224.400 194.485,224.400 194.883 C 224.400 195.357,223.833 195.833,222.760 196.263 C 220.803 197.046,219.650 199.255,219.308 202.879 C 219.094 205.139,219.079 205.162,217.446 205.679 C 214.890 206.488,214.451 208.795,214.409 221.649 L 214.400 224.298 212.807 224.553 C 210.174 224.973,210.049 225.444,210.147 234.602 C 210.193 239.003,210.387 242.856,210.578 243.164 C 210.814 243.546,210.777 243.633,210.462 243.438 C 210.145 243.243,210.000 243.607,210.000 244.595 C 210.000 246.441,211.456 248.000,213.182 248.000 L 214.400 248.000 214.432 251.100 C 214.449 252.805,214.453 255.550,214.441 257.200 C 214.390 263.780,215.170 266.146,217.607 266.802 C 219.037 267.187,219.133 267.313,219.345 269.105 C 219.900 273.775,220.540 275.117,222.642 276.018 C 224.327 276.740,224.400 276.843,224.406 278.486 C 224.415 280.834,224.835 281.322,227.072 281.579 L 229.000 281.800 229.128 283.592 C 229.260 285.458,229.789 286.471,230.553 286.325 C 231.840 286.079,233.831 286.873,234.263 287.803 C 234.517 288.352,234.562 288.700,234.363 288.577 C 234.163 288.454,234.000 288.734,234.000 289.200 C 234.000 289.666,234.178 289.937,234.395 289.803 C 234.631 289.657,234.684 289.838,234.526 290.249 C 234.321 290.784,234.416 290.879,234.951 290.674 C 235.363 290.516,235.543 290.569,235.396 290.806 C 235.245 291.050,235.774 291.153,236.776 291.074 C 237.669 291.003,238.400 291.103,238.400 291.296 C 238.400 291.489,238.553 291.552,238.741 291.437 C 238.928 291.321,239.289 291.919,239.542 292.766 C 240.221 295.030,243.166 296.470,246.713 296.272 C 248.467 296.173,248.800 296.477,248.800 298.171 C 248.800 300.019,251.910 301.238,256.400 301.151 C 261.723 301.047,264.400 301.223,264.400 301.678 C 264.400 302.239,266.387 304.400,266.903 304.400 C 267.098 304.400,267.532 304.674,267.867 305.010 C 268.638 305.781,263.913 305.695,315.100 305.863 L 359.200 306.007 359.200 339.803 L 359.200 373.600 358.000 373.600 C 357.136 373.600,356.791 373.796,356.768 374.300 C 356.750 374.718,356.656 374.799,356.535 374.500 C 355.893 372.908,354.237 375.066,354.481 377.175 L 354.600 378.200 190.500 378.300 C 34.414 378.396,26.398 378.367,26.356 377.700 C 26.331 377.315,26.344 376.595,26.384 376.100 C 26.424 375.605,26.264 375.200,26.029 375.200 C 25.793 375.200,25.645 374.975,25.700 374.700 C 25.755 374.425,25.575 374.245,25.300 374.300 C 25.025 374.355,24.800 374.207,24.800 373.971 C 24.800 373.736,24.395 373.576,23.900 373.616 C 21.360 373.821,21.600 387.939,21.600 238.190 L 21.600 102.780 22.699 102.362 C 24.257 101.770,25.116 100.891,25.400 99.602 C 25.596 98.708,25.819 98.525,26.522 98.678 C 27.055 98.794,27.219 98.738,26.938 98.535 C 26.684 98.351,100.062 98.200,190.000 98.200 C 279.938 98.200,353.440 98.335,353.338 98.500 M378.400 236.200 L 378.400 277.200 327.100 277.236 C 298.885 277.256,274.630 277.264,273.200 277.254 C 271.770 277.245,268.755 277.229,266.500 277.219 L 262.400 277.200 262.400 275.224 C 262.400 274.137,262.192 273.119,261.938 272.962 C 261.635 272.774,261.576 272.869,261.768 273.238 C 261.928 273.547,261.812 273.499,261.509 273.132 C 261.156 272.703,260.463 272.494,259.579 272.547 C 257.876 272.651,257.200 272.192,257.200 270.933 C 257.200 269.617,255.506 268.001,254.118 267.994 C 252.684 267.986,252.347 267.719,251.523 265.934 C 251.048 264.907,250.428 264.317,249.451 263.964 C 248.191 263.508,248.030 263.276,247.795 261.562 C 247.492 259.364,246.789 258.607,244.700 258.233 L 243.200 257.964 243.200 255.815 C 243.200 252.223,241.759 249.587,239.500 249.048 L 238.400 248.785 238.400 236.444 L 238.400 224.103 240.416 223.836 C 242.899 223.506,243.109 223.077,243.161 218.209 C 243.205 214.128,243.145 214.253,245.044 214.325 C 247.164 214.404,247.988 213.826,247.939 212.291 C 247.848 209.459,247.901 209.351,249.300 209.492 C 251.615 209.726,252.595 208.872,252.635 206.586 L 252.669 204.600 254.535 204.696 C 255.565 204.750,256.400 204.615,256.400 204.396 C 256.400 204.178,256.625 204.045,256.900 204.100 C 257.238 204.168,257.439 203.518,257.521 202.100 L 257.642 200.000 260.121 199.959 C 261.484 199.937,263.146 199.948,263.813 199.983 C 265.502 200.071,267.322 199.330,266.960 198.701 C 266.801 198.425,266.813 198.328,266.987 198.484 C 267.523 198.968,269.555 197.648,270.204 196.393 L 270.821 195.200 324.610 195.200 L 378.400 195.200 378.400 236.200 M275.200 224.279 C 274.210 224.356,273.040 224.572,272.600 224.760 C 272.160 224.947,271.329 225.288,270.752 225.518 C 270.155 225.756,269.249 226.751,268.645 227.831 L 267.585 229.727 267.693 238.764 L 267.800 247.800 270.072 247.919 C 272.275 248.035,272.353 248.077,272.602 249.319 C 273.082 251.705,273.236 251.950,274.519 252.359 C 276.032 252.841,288.996 252.836,290.300 252.353 C 291.014 252.089,291.201 251.707,291.206 250.510 C 291.215 248.366,291.542 248.064,294.009 247.924 L 296.200 247.800 296.320 245.500 L 296.440 243.200 297.731 243.200 C 302.072 243.200,302.041 233.784,297.692 231.000 C 296.710 230.372,296.336 229.741,295.949 228.062 C 295.620 226.637,295.151 225.724,294.543 225.326 C 292.994 224.311,282.272 223.731,275.200 224.279 M209.731 236.200 C 209.733 237.740,209.805 238.321,209.892 237.491 C 209.979 236.661,209.977 235.401,209.889 234.691 C 209.800 233.981,209.729 234.660,209.731 236.200 " stroke="none" fill="#007ef0" fill-rule="evenodd"></path><path id="path3" d="M180.500 70.300 C 207.065 70.357,250.535 70.357,277.100 70.300 C 303.665 70.243,281.930 70.197,228.800 70.197 C 175.670 70.197,153.935 70.243,180.500 70.300 M210.131 236.200 C 210.133 237.740,210.205 238.321,210.292 237.491 C 210.379 236.661,210.377 235.401,210.289 234.691 C 210.200 233.981,210.129 234.660,210.131 236.200 " stroke="none" fill="#00aaff" fill-rule="evenodd"></path><path id="path4" d="M159.900 36.282 C 160.395 36.378,161.205 36.378,161.700 36.282 C 162.195 36.187,161.790 36.109,160.800 36.109 C 159.810 36.109,159.405 36.187,159.900 36.282 M144.100 41.087 C 144.705 41.178,145.695 41.178,146.300 41.087 C 146.905 40.995,146.410 40.920,145.200 40.920 C 143.990 40.920,143.495 40.995,144.100 41.087 M168.700 60.289 C 169.415 60.378,170.585 60.378,171.300 60.289 C 172.015 60.201,171.430 60.128,170.000 60.128 C 168.570 60.128,167.985 60.201,168.700 60.289 M155.100 65.082 C 155.595 65.178,156.405 65.178,156.900 65.082 C 157.395 64.987,156.990 64.909,156.000 64.909 C 155.010 64.909,154.605 64.987,155.100 65.082 M209.701 232.200 C 209.705 233.080,209.787 233.393,209.883 232.895 C 209.979 232.398,209.975 231.678,209.875 231.295 C 209.775 230.913,209.696 231.320,209.701 232.200 M209.709 240.400 C 209.709 241.390,209.787 241.795,209.882 241.300 C 209.978 240.805,209.978 239.995,209.882 239.500 C 209.787 239.005,209.709 239.410,209.709 240.400 M386.199 375.202 C 386.060 375.643,385.462 376.265,384.873 376.586 C 384.283 376.906,384.033 377.175,384.318 377.184 C 384.931 377.203,386.800 375.421,386.800 374.818 C 386.800 374.133,386.472 374.342,386.199 375.202 M0.500 387.876 C 0.885 387.976,1.515 387.976,1.900 387.876 C 2.285 387.775,1.970 387.693,1.200 387.693 C 0.430 387.693,0.115 387.775,0.500 387.876 M12.093 398.800 C 12.093 399.570,12.175 399.885,12.276 399.500 C 12.376 399.115,12.376 398.485,12.276 398.100 C 12.175 397.715,12.093 398.030,12.093 398.800 " stroke="none" fill="#00ffff" fill-rule="evenodd"></path></g></svg>